<svg width="20" height="20" viewBox="0 0 20 20" fill="none" xmlns="http://www.w3.org/2000/svg">
<path d="M10.4165 16.6668H8.74984C5.61769 16.6668 4.05161 16.6668 3.00605 15.8411C2.83882 15.709 2.68416 15.5635 2.54384 15.4061C1.6665 14.422 1.6665 12.9481 1.6665 10.0002C1.6665 7.05226 1.6665 5.5783 2.54384 4.59425C2.68416 4.43685 2.83882 4.29129 3.00605 4.15922C4.05161 3.3335 5.61769 3.3335 8.74984 3.3335H11.2498C14.382 3.3335 15.9481 3.3335 16.9936 4.15922C17.1608 4.29129 17.3155 4.43685 17.4558 4.59425C18.1993 5.42815 18.3128 6.61385 18.3301 8.75016" stroke="#FF6B6B" stroke-width="1.25" stroke-linecap="round" stroke-linejoin="round"/>
<path d="M15.4167 16.6668V10.8335M12.5 13.7502H18.3333" stroke="#FF6B6B" stroke-width="1.25" stroke-linecap="round"/>
<path d="M1.6665 7.5H18.3332" stroke="#FF6B6B" stroke-width="1.25" stroke-linejoin="round"/>
</svg>
