<svg width="22" height="22" viewBox="0 0 22 22" fill="none" xmlns="http://www.w3.org/2000/svg">
<path d="M1.83301 10.9998C1.83301 7.75715 1.83301 6.13579 2.79807 5.05333C2.95243 4.8802 3.12256 4.72007 3.30651 4.5748C4.45663 3.6665 6.17931 3.6665 9.62467 3.6665H12.3747C15.8201 3.6665 17.5427 3.6665 18.6928 4.5748C18.8768 4.72007 19.0469 4.8802 19.2013 5.05333C20.1663 6.13579 20.1663 7.75715 20.1663 10.9998C20.1663 14.2425 20.1663 15.8639 19.2013 16.9463C19.0469 17.1195 18.8768 17.2796 18.6928 17.4248C17.5427 18.3332 15.8201 18.3332 12.3747 18.3332H9.62467C6.17931 18.3332 4.45663 18.3332 3.30651 17.4248C3.12256 17.2796 2.95243 17.1195 2.79807 16.9463C1.83301 15.8639 1.83301 14.2425 1.83301 10.9998Z" stroke="#FF6B6B" stroke-width="1.5" stroke-linecap="round" stroke-linejoin="round"/>
<path d="M9.16699 14.6665H10.542" stroke="#FF6B6B" stroke-width="1.5" stroke-miterlimit="10" stroke-linecap="round" stroke-linejoin="round"/>
<path d="M13.292 14.6665H16.5003" stroke="#FF6B6B" stroke-width="1.5" stroke-miterlimit="10" stroke-linecap="round" stroke-linejoin="round"/>
<path d="M1.83301 8.25H20.1663" stroke="#FF6B6B" stroke-width="1.5" stroke-linejoin="round"/>
</svg>
