<svg width="20" height="20" viewBox="0 0 20 20" fill="none" xmlns="http://www.w3.org/2000/svg">
<path d="M12.0833 15.8332H10.4166C8.0596 15.8332 6.88109 15.8332 6.14886 15.1009C5.41663 14.3687 5.41663 13.1902 5.41663 10.8332V6.6665C5.41663 4.30948 5.41663 3.13097 6.14886 2.39874C6.88109 1.6665 8.0596 1.6665 10.4166 1.6665H11.5359C12.2172 1.6665 12.5578 1.6665 12.8641 1.79337C13.1704 1.92024 13.4112 2.1611 13.8929 2.64281L16.1069 4.85686C16.5887 5.33857 16.8295 5.57944 16.9564 5.88572C17.0833 6.192 17.0833 6.53263 17.0833 7.21388V10.8332C17.0833 13.1902 17.0833 14.3687 16.351 15.1009C15.6189 15.8332 14.4403 15.8332 12.0833 15.8332Z" stroke="#6B7280" stroke-width="1.25" stroke-linecap="round" stroke-linejoin="round"/>
<path d="M12.5 2.0835V2.91683C12.5 4.48818 12.5 5.27385 12.9882 5.762C13.4763 6.25016 14.262 6.25016 15.8333 6.25016H16.6667" stroke="#6B7280" stroke-width="1.25" stroke-linecap="round" stroke-linejoin="round"/>
<path d="M5.41663 4.1665C4.03592 4.1665 2.91663 5.2858 2.91663 6.6665V13.3332C2.91663 15.6903 2.91663 16.8688 3.64886 17.6009C4.38109 18.3332 5.5596 18.3332 7.91663 18.3332H12.0836C13.4643 18.3332 14.5836 17.2138 14.5836 15.8332" stroke="#6B7280" stroke-width="1.25" stroke-linecap="round" stroke-linejoin="round"/>
<path d="M8.33337 9.1665H11.6667M8.33337 12.4998H14.1667" stroke="#6B7280" stroke-width="1.25" stroke-linecap="round" stroke-linejoin="round"/>
</svg>
