<svg width="8" height="18" viewBox="0 0 8 18" fill="none" xmlns="http://www.w3.org/2000/svg">
<path fill-rule="evenodd" clip-rule="evenodd" d="M3.99967 0.875C4.34485 0.875 4.62467 1.15482 4.62467 1.5V2.59664C6.2826 2.89183 7.54134 4.34059 7.54134 6.08333C7.54134 6.42851 7.26152 6.70833 6.91634 6.70833C6.57116 6.70833 6.29134 6.42851 6.29134 6.08333C6.29134 5.03435 5.58655 4.14998 4.62467 3.87793V8.42997C6.2826 8.72517 7.54134 10.1739 7.54134 11.9167C7.54134 13.6594 6.2826 15.1082 4.62467 15.4034V16.5C4.62467 16.8452 4.34485 17.125 3.99967 17.125C3.6545 17.125 3.37467 16.8452 3.37467 16.5V15.4034C1.71675 15.1082 0.458008 13.6594 0.458008 11.9167C0.458008 11.5715 0.73783 11.2917 1.08301 11.2917C1.42819 11.2917 1.70801 11.5715 1.70801 11.9167C1.70801 12.9656 2.4128 13.85 3.37467 14.1221V9.57003C1.71675 9.27483 0.458008 7.82608 0.458008 6.08333C0.458008 4.34059 1.71675 2.89183 3.37467 2.59664V1.5C3.37467 1.15482 3.6545 0.875 3.99967 0.875ZM3.37467 3.87793C2.4128 4.14998 1.70801 5.03435 1.70801 6.08333C1.70801 7.13231 2.4128 8.01668 3.37467 8.28874V3.87793ZM4.62467 9.71126V14.1221C5.58655 13.85 6.29134 12.9656 6.29134 11.9167C6.29134 10.8677 5.58655 9.98332 4.62467 9.71126Z" fill="#AEB2B2"/>
</svg>
