<svg width="32" height="33" viewBox="0 0 32 33" fill="none" xmlns="http://www.w3.org/2000/svg">
<path d="M19.3331 25.8332H16.6665C12.8953 25.8332 11.0097 25.8332 9.83808 24.6616C8.6665 23.49 8.6665 21.6044 8.6665 17.8332V11.1665C8.6665 7.39526 8.6665 5.50965 9.83808 4.33808C11.0097 3.1665 12.8953 3.1665 16.6665 3.1665H18.4574C19.5474 3.1665 20.0923 3.1665 20.5825 3.36949C21.0725 3.57248 21.4578 3.95785 22.2286 4.7286L25.771 8.27108C26.5418 9.04181 26.9271 9.4272 27.1302 9.91725C27.3331 10.4073 27.3331 10.9523 27.3331 12.0423V17.8332C27.3331 21.6044 27.3331 23.49 26.1615 24.6616C24.9901 25.8332 23.1043 25.8332 19.3331 25.8332Z" stroke="#FFCC00" stroke-width="2" stroke-linecap="round" stroke-linejoin="round"/>
<path d="M20 3.8335V5.16683C20 7.68099 20 8.93807 20.7811 9.71911C21.5621 10.5002 22.8192 10.5002 25.3333 10.5002H26.6667" stroke="#FFCC00" stroke-width="2" stroke-linecap="round" stroke-linejoin="round"/>
<path d="M8.6665 7.1665C6.45737 7.1665 4.6665 8.95737 4.6665 11.1665V21.8332C4.6665 25.6045 4.6665 27.4901 5.83808 28.6616C7.00965 29.8332 8.89526 29.8332 12.6665 29.8332H19.3337C21.5427 29.8332 23.3337 28.0422 23.3337 25.8332" stroke="#FFCC00" stroke-width="2" stroke-linecap="round" stroke-linejoin="round"/>
<path d="M13.3335 15.1665H18.6668M13.3335 20.4998H22.6668" stroke="#FFCC00" stroke-width="2" stroke-linecap="round" stroke-linejoin="round"/>
</svg>
