<svg width="22" height="22" viewBox="0 0 22 22" fill="none" xmlns="http://www.w3.org/2000/svg">
<path d="M13.75 7.33317H15.5833M13.75 10.9998H15.5833M6.41667 14.6665H15.5833M2.75 6.4165C2.75 5.68716 3.03973 4.98769 3.55546 4.47196C4.07118 3.95624 4.77065 3.6665 5.5 3.6665H16.5C17.2293 3.6665 17.9288 3.95624 18.4445 4.47196C18.9603 4.98769 19.25 5.68716 19.25 6.4165V15.5832C19.25 16.3125 18.9603 17.012 18.4445 17.5277C17.9288 18.0434 17.2293 18.3332 16.5 18.3332H5.5C4.77065 18.3332 4.07118 18.0434 3.55546 17.5277C3.03973 17.012 2.75 16.3125 2.75 15.5832V6.4165ZM6.41667 9.1665C6.41667 9.65273 6.60982 10.119 6.95364 10.4629C7.29745 10.8067 7.76377 10.9998 8.25 10.9998C8.73623 10.9998 9.20255 10.8067 9.54636 10.4629C9.89018 10.119 10.0833 9.65273 10.0833 9.1665C10.0833 8.68027 9.89018 8.21396 9.54636 7.87014C9.20255 7.52633 8.73623 7.33317 8.25 7.33317C7.76377 7.33317 7.29745 7.52633 6.95364 7.87014C6.60982 8.21396 6.41667 8.68027 6.41667 9.1665Z" stroke="#FF6B6B" stroke-width="1.5" stroke-linecap="round" stroke-linejoin="round"/>
</svg>
