<svg width="22" height="22" viewBox="0 0 22 22" fill="none" xmlns="http://www.w3.org/2000/svg">
<path d="M10.089 19.2503H8.80468C5.5182 19.2503 3.87497 19.2503 2.85398 18.21C1.83301 17.1696 1.83301 15.4951 1.83301 12.1461C1.83301 8.79723 1.83301 7.12275 2.85398 6.08237C3.87497 5.04199 5.5182 5.04199 8.80468 5.04199H12.2905C15.577 5.04199 17.2203 5.04199 18.2412 6.08237C19.0267 6.88283 19.2079 8.05865 19.2497 10.0836" stroke="#F05D29" stroke-width="1.5" stroke-linecap="round"/>
<path d="M18.3485 18.3549L20.1663 20.1668M19.2983 16.0661C19.2983 14.2808 17.8509 12.8335 16.0656 12.8335C14.2802 12.8335 12.833 14.2808 12.833 16.0661C12.833 17.8515 14.2802 19.2988 16.0656 19.2988C17.8509 19.2988 19.2983 17.8515 19.2983 16.0661Z" stroke="#F05D29" stroke-width="1.5" stroke-linecap="round" stroke-linejoin="round"/>
<path d="M14.6661 5.04183L14.5749 4.75852C14.1212 3.34681 13.8943 2.64096 13.3541 2.23722C12.814 1.8335 12.0965 1.8335 10.6616 1.8335H10.4204C8.98547 1.8335 8.268 1.8335 7.72787 2.23722C7.18772 2.64096 6.96084 3.34681 6.50708 4.75852L6.41602 5.04183" stroke="#F05D29" stroke-width="1.5"/>
</svg>
