<svg width="22" height="22" viewBox="0 0 22 22" fill="none" xmlns="http://www.w3.org/2000/svg">
<path d="M14.2087 7.37041C14.1709 6.30641 14.0451 5.64163 13.6261 5.12115C13.0274 4.37741 12.0035 4.14392 9.95578 3.67694L9.03788 3.46762C5.92648 2.75808 4.37078 2.40331 3.33138 3.2204C2.29199 4.03749 2.29199 5.61522 2.29199 8.77069V13.2293C2.29199 16.3848 2.29199 17.9625 3.33138 18.7796C4.37078 19.5967 5.92648 19.2419 9.03788 18.5323L9.95578 18.3231C12.0035 17.8561 13.0274 17.6225 13.6261 16.8789C14.0451 16.3584 14.1709 15.6936 14.2087 14.6295" stroke="#FF6B6B" stroke-width="1.5" stroke-linecap="round" stroke-linejoin="round"/>
<path d="M16.9587 8.26074C16.9587 8.26074 19.7087 10.2861 19.7087 11.0107C19.7087 11.7354 16.9587 13.7607 16.9587 13.7607M19.2503 11.0107H7.79199" stroke="#FF6B6B" stroke-width="1.5" stroke-linecap="round" stroke-linejoin="round"/>
</svg>
