<svg width="48" height="48" viewBox="0 0 48 48" fill="none" xmlns="http://www.w3.org/2000/svg">
<path d="M15.582 38C14.9293 37.7362 14.5688 37.6084 14.3672 37.6332C14.1194 37.6634 13.7598 37.9274 13.0407 38.455C11.7727 39.3856 10.1754 40.054 7.80657 39.9966C6.60875 39.9676 6.00983 39.953 5.74171 39.498C5.47359 39.0432 5.80752 38.4134 6.47538 37.1538C7.40166 35.4068 7.98854 33.407 7.09926 31.8046C5.56768 29.5156 4.26672 26.805 4.0766 23.8774C3.97446 22.3044 3.97446 20.6754 4.0766 19.1024C4.59858 11.0643 10.9421 4.66152 18.9058 4.13466C21.6172 3.9553 24.4538 3.95492 27.1708 4.13466C35.1006 4.65928 41.424 11.01 41.993 19" stroke="#FF6B6B" stroke-width="3" stroke-linecap="round" stroke-linejoin="round"/>
<path d="M29.3952 43.2943C24.3756 42.9725 20.3772 39.0597 20.0482 34.1475C19.9839 33.1861 19.9839 32.1907 20.0482 31.2293C20.3772 26.3171 24.3756 22.4043 29.3952 22.0823C31.1078 21.9725 32.8958 21.9727 34.6048 22.0823C39.6244 22.4043 43.6228 26.3171 43.9518 31.2293C44.016 32.1907 44.016 33.1861 43.9518 34.1475C43.8318 35.9365 43.0118 37.5931 42.0466 38.9917C41.486 39.9709 41.856 41.1931 42.4398 42.2607C42.8608 43.0305 43.0712 43.4153 42.9022 43.6933C42.7332 43.9715 42.3556 43.9803 41.6006 43.9981C40.1076 44.0331 39.1008 43.6247 38.3016 43.0559C37.8484 42.7335 37.6216 42.5723 37.4654 42.5537C37.3092 42.5351 37.0018 42.6573 36.3872 42.9015C35.8348 43.1211 35.1932 43.2567 34.6048 43.2943C32.8958 43.4041 31.1078 43.4043 29.3952 43.2943Z" stroke="#FF6B6B" stroke-width="3" stroke-linejoin="round"/>
</svg>
