<svg width="22" height="22" viewBox="0 0 22 22" fill="none" xmlns="http://www.w3.org/2000/svg">
<path d="M10.089 19.2503H8.80468C5.5182 19.2503 3.87497 19.2503 2.85398 18.21C1.83301 17.1696 1.83301 15.4951 1.83301 12.1461C1.83301 8.79723 1.83301 7.12275 2.85398 6.08237C3.87497 5.04199 5.5182 5.04199 8.80468 5.04199H12.2905C15.577 5.04199 17.2203 5.04199 18.2412 6.08237C19.0267 6.88283 19.2079 8.05865 19.2497 10.0836" stroke="#FF6B6B" stroke-width="1.5" stroke-linecap="round"/>
<path d="M15.6854 12.1503C15.8546 11.9944 15.9392 11.9165 16.042 11.9165C16.1447 11.9165 16.2293 11.9944 16.3986 12.1503L17.0519 12.7522C17.1308 12.8249 17.1702 12.8613 17.2192 12.8793C17.2683 12.8973 17.3219 12.8952 17.4292 12.891L18.3118 12.8564C18.5391 12.8474 18.6527 12.843 18.7306 12.9084C18.8086 12.9739 18.8237 13.0866 18.854 13.312L18.9757 14.2152C18.9897 14.3196 18.9968 14.3718 19.0221 14.4163C19.0476 14.4609 19.089 14.4934 19.1717 14.5586L19.8826 15.1182C20.0585 15.2567 20.1465 15.326 20.1639 15.425C20.1814 15.524 20.1223 15.619 20.0043 15.8093L19.5221 16.5863C19.4669 16.6752 19.4394 16.7197 19.4306 16.7699C19.4218 16.82 19.4327 16.8713 19.4545 16.9736L19.6458 17.8704C19.6928 18.0908 19.7163 18.201 19.6658 18.2885C19.6154 18.376 19.5083 18.4109 19.294 18.4807L18.4455 18.757C18.3444 18.7899 18.2938 18.8064 18.2543 18.8399C18.2147 18.8735 18.1903 18.9207 18.1413 19.0151L17.7268 19.814C17.6211 20.0175 17.5683 20.1193 17.4721 20.1544C17.3758 20.1895 17.2698 20.1456 17.058 20.0577L16.2436 19.7199C16.1441 19.6787 16.0944 19.658 16.042 19.658C15.9895 19.658 15.9399 19.6787 15.8403 19.7199L15.0259 20.0577C14.8141 20.1456 14.7081 20.1895 14.6119 20.1544C14.5156 20.1193 14.4628 20.0175 14.3571 19.814L13.9426 19.0151C13.8937 18.9207 13.8692 18.8735 13.8297 18.8399C13.7902 18.8064 13.7396 18.7899 13.6385 18.757L12.7899 18.4807C12.5757 18.4109 12.4685 18.376 12.4181 18.2885C12.3676 18.201 12.3912 18.0908 12.4381 17.8704L12.6294 16.9736C12.6512 16.8713 12.6621 16.82 12.6533 16.7699C12.6445 16.7197 12.617 16.6752 12.5618 16.5863L12.0797 15.8093C11.9616 15.619 11.9026 15.524 11.92 15.425C11.9374 15.326 12.0254 15.2567 12.2013 15.1182L12.9122 14.5586C12.995 14.4934 13.0363 14.4609 13.0618 14.4163C13.0872 14.3718 13.0942 14.3196 13.1083 14.2152L13.2299 13.312C13.2603 13.0866 13.2754 12.9739 13.3533 12.9084C13.4312 12.843 13.5449 12.8474 13.7721 12.8564L14.6548 12.891C14.762 12.8952 14.8157 12.8973 14.8647 12.8793C14.9137 12.8613 14.9532 12.8249 15.0321 12.7522L15.6854 12.1503Z" stroke="#FF6B6B" stroke-width="1.5"/>
<path d="M14.6661 5.04183L14.5749 4.75852C14.1212 3.34681 13.8943 2.64096 13.3541 2.23722C12.814 1.8335 12.0965 1.8335 10.6616 1.8335H10.4204C8.98547 1.8335 8.268 1.8335 7.72787 2.23722C7.18772 2.64096 6.96084 3.34681 6.50708 4.75852L6.41602 5.04183" stroke="#FF6B6B" stroke-width="1.5"/>
</svg>
