<svg width="22" height="22" viewBox="0 0 22 22" fill="none" xmlns="http://www.w3.org/2000/svg">
<path d="M14.2087 16.5C14.2087 18.2719 12.7722 19.7083 11.0003 19.7083C9.22841 19.7083 7.79199 18.2719 7.79199 16.5" stroke="#FF6B6B" stroke-width="1.5" stroke-linecap="round" stroke-linejoin="round"/>
<path d="M17.6285 16.4998H4.37146C3.47595 16.4998 2.75 15.7738 2.75 14.8783C2.75 14.4483 2.92083 14.0359 3.22492 13.7318L3.77788 13.1788C4.2936 12.6631 4.58333 11.9636 4.58333 11.2343V8.70817C4.58333 5.16435 7.45618 2.2915 11 2.2915C14.5438 2.2915 17.4167 5.16434 17.4167 8.70817V11.2343C17.4167 11.9636 17.7064 12.6631 18.2221 13.1788L18.7751 13.7318C19.0791 14.0359 19.25 14.4483 19.25 14.8783C19.25 15.7738 18.524 16.4998 17.6285 16.4998Z" stroke="#FF6B6B" stroke-width="1.5" stroke-linecap="round" stroke-linejoin="round"/>
</svg>
