<svg width="32" height="22" viewBox="0 0 32 22" fill="none" xmlns="http://www.w3.org/2000/svg">
<g clip-path="url(#clip0_6994_12458)">
<path d="M0 3.00016C0 1.5274 1.19391 0.333496 2.66667 0.333496H29.3333C30.8061 0.333496 32 1.5274 32 3.00016V19.0002C32 20.4729 30.8061 21.6668 29.3333 21.6668H2.66667C1.19391 21.6668 0 20.4729 0 19.0002V3.00016Z" fill="#D8E3F3"/>
<path d="M27.5391 7.02344H25.8626C25.3558 7.02344 24.966 7.17938 24.732 7.68621L21.5352 14.9767H23.7964C23.7964 14.9767 24.1862 14.002 24.2642 13.7681C24.4981 13.7681 26.7203 13.7681 27.0322 13.7681C27.1102 14.041 27.3051 14.9377 27.3051 14.9377H29.3324L27.5391 7.02344ZM24.888 12.1307C25.0829 11.6628 25.7457 9.90843 25.7457 9.90843C25.7457 9.94741 25.9406 9.44059 26.0186 9.16769L26.1745 9.86944C26.1745 9.86944 26.6034 11.7798 26.6814 12.1696H24.888V12.1307Z" fill="#3362AB"/>
<path d="M21.691 12.3648C21.691 14.0023 20.2095 15.0939 17.9093 15.0939C16.9347 15.0939 15.999 14.8989 15.4922 14.665L15.8041 12.8717L16.077 12.9886C16.7787 13.3005 17.2466 13.4175 18.1043 13.4175C18.7281 13.4175 19.3908 13.1835 19.3908 12.6377C19.3908 12.2869 19.1179 12.0529 18.2602 11.6631C17.4415 11.2732 16.3499 10.6494 16.3499 9.51882C16.3499 7.95937 17.8704 6.90674 20.0146 6.90674C20.8333 6.90674 21.5351 7.06268 21.9639 7.25762L21.652 8.97302L21.4961 8.81707C21.1062 8.66112 20.5994 8.50518 19.8587 8.50518C19.0399 8.54417 18.6501 8.89504 18.6501 9.20693C18.6501 9.55781 19.1179 9.83071 19.8587 10.1816C21.1062 10.7664 21.691 11.4292 21.691 12.3648Z" fill="#3362AB"/>
<path d="M2.66602 7.10175L2.705 6.9458H6.05783C6.52566 6.9458 6.87654 7.10175 6.9935 7.60857L7.73424 11.1173C6.9935 9.246 5.2781 7.72553 2.66602 7.10175Z" fill="#F9B50B"/>
<path d="M12.4519 7.02385L9.06006 14.9381H6.75986L4.81055 8.3104C6.21406 9.20709 7.38365 10.6106 7.8125 11.5853L8.04641 12.404L10.1517 6.98486H12.4519V7.02385Z" fill="#3362AB"/>
<path d="M13.3489 6.98486H15.4931L14.1286 14.9381H11.9844L13.3489 6.98486Z" fill="#3362AB"/>
</g>
<defs>
<clipPath id="clip0_6994_12458">
<rect width="32" height="21.3333" fill="white" transform="translate(0 0.333496)"/>
</clipPath>
</defs>
</svg>
