<svg width="220" height="107" viewBox="0 0 220 107" fill="none" xmlns="http://www.w3.org/2000/svg">
<path d="M19.8015 94.4148C18.8675 93.7678 17.7017 93.0576 17.446 91.8698C17.0046 89.8174 16.9229 87.5831 16.7172 85.4932L15.5487 73.6496C15.3238 71.4314 14.6222 69.0348 14.6173 66.8369C14.6115 64.243 15.3395 57.4892 16.0315 55.1774C16.7253 52.8609 18.7749 50.663 19.8513 48.4048C20.9661 54.3278 22.3921 60.3228 23.2456 66.2828C23.8524 70.5194 23.9164 74.9597 24.2023 79.2309C24.4455 82.865 24.9669 86.709 24.8504 90.3427C24.825 91.1336 24.7802 92.1053 24.295 92.7656C23.8046 93.4328 23.0338 93.9537 22.3517 94.4108L67.8446 94.4367C69.9389 94.4367 79.3093 94.7414 80.4059 94.4291C80.2715 93.8481 80.0256 93.7707 79.5241 93.4465C78.7327 92.9348 78.4331 92.6783 78.1835 91.7383C77.6252 89.6351 78.3291 86.6487 78.4727 84.4531C78.8545 78.6146 78.9227 72.5622 79.668 66.77C80.4522 60.6771 82.0086 54.5881 83.1453 48.5438C84.1962 50.639 86.349 53.0285 86.9169 55.141C87.645 57.8486 88.3935 64.017 88.3808 66.8163C88.3717 68.8127 87.7397 70.8129 87.5054 72.798C87.103 76.3881 86.7422 79.9831 86.4235 83.5817C86.2059 86.2167 86.3048 89.5091 85.4621 92.0205C85.0814 93.1546 84.0712 93.7955 83.112 94.4171L142.622 94.4419L142.633 106.804C140.884 107.142 138.734 106.927 136.943 106.925L125.454 106.908L83.0814 106.901L25.9937 106.9L9.28962 106.922C6.26035 106.929 3.00783 107.152 0 106.811L0.00997005 94.4367C6.60437 94.4325 13.2083 94.501 19.8015 94.4148Z" fill="black"/>
<path d="M146.463 52.2159C151.677 52.2323 165.234 51.0838 168.81 54.6239C172.097 57.8786 172.161 64.0178 172.214 68.3522C172.284 74.1526 172.747 82.7641 168.294 87.1693C165.313 90.1206 160.616 90.084 156.705 90.0601V92.7645L156.711 106.649C153.354 107.044 149.795 107.012 146.438 106.663L146.463 52.2159Z" fill="url(#paint0_linear_6339_3494)"/>
<path d="M156.658 61.2704C157.763 61.2397 159.192 61.0606 160.215 61.5569C160.915 61.8969 161.293 62.5692 161.533 63.2766C162.653 66.5835 162.381 76.7096 160.777 79.9562C160.066 80.6747 159.007 81.1775 157.991 81.2942C157.437 81.3579 157.244 81.3121 156.806 80.996C156.299 74.8314 156.724 67.5758 156.658 61.2704Z" fill="white"/>
<path d="M126.971 89.0959C124.304 90.0401 121.307 90.3517 118.487 90.4053C114.123 90.4886 109.066 90.3759 105.749 87.1577C102.419 83.9265 101.809 78.557 101.73 74.1507C101.624 68.2209 101.123 59.5998 105.679 55.0093C108.232 52.438 112.056 51.85 115.547 51.8482C118.782 51.8463 122.343 52.2485 124.717 54.646C128.958 58.9229 128.527 66.9424 128.438 72.5193C128.376 73.4059 128.302 74.2914 128.215 75.1756L125.496 75.1689L111.693 75.167C111.729 76.1835 111.793 77.1948 112.012 78.1913C112.279 79.4034 112.971 80.5919 114.058 81.2488C117.035 83.0476 123.712 81.5142 126.967 80.7588C127.164 83.5672 127.133 86.2842 126.971 89.0959Z" fill="url(#paint1_linear_6339_3494)"/>
<path d="M125.496 75.1691C126.097 74.5763 127.697 72.6234 128.438 72.5195C128.376 73.4061 128.302 74.2916 128.215 75.1758L125.496 75.1691Z" fill="#F47724"/>
<path d="M114.986 60.4571C115.932 60.4205 116.737 60.3324 117.465 61.0545C118.923 62.4985 118.596 65.8518 118.653 67.7873L115.366 67.7934L111.805 67.797C111.866 65.9793 111.758 63.7806 112.662 62.15C113.235 61.1157 113.91 60.7904 114.986 60.4571Z" fill="white"/>
<path d="M187.46 51.8945C189.048 51.8344 190.629 51.7814 192.206 52.0232C194.897 52.4356 197.293 53.5972 198.916 55.8144C202.148 60.2288 202.246 69.9895 201.454 75.2028C195.943 75.1204 190.425 75.1717 184.912 75.1671C184.982 76.0856 185.073 77.0058 185.236 77.9134C185.468 79.2159 186.121 80.4727 187.267 81.2079C190.213 83.0977 196.974 81.4562 200.217 80.7799C200.389 82.1636 200.412 83.5651 200.467 84.9572C200.463 86.3455 200.332 87.7235 200.213 89.1055C198.504 89.6637 196.741 90.0334 194.95 90.2075C190.194 90.7067 183.509 90.8674 179.648 87.6999C176.455 85.0783 175.502 80.8237 175.173 76.9114C174.655 70.7465 174.175 60.4822 178.539 55.4809C180.831 52.853 184.116 52.1565 187.46 51.8945Z" fill="url(#paint2_linear_6339_3494)"/>
<path d="M188.083 60.4761C189.074 60.4553 189.933 60.3149 190.712 61.0574C192.208 62.4839 191.873 65.8432 191.926 67.7832L189.295 67.7912L185.131 67.7938C185.156 66.0293 185.052 63.8588 185.88 62.2593C186.404 61.2439 187.039 60.8372 188.083 60.4761Z" fill="white"/>
<path d="M13.7598 39.3525C11.929 37.5523 5.19685 29.0777 3.8989 26.8552C3.6525 26.4332 3.51032 25.9777 3.4458 25.4949C3.29025 24.3291 3.71702 23.1477 4.49481 22.2736C5.14931 21.5376 6.05805 21.0348 7.05719 20.9902C11.5767 20.7884 13.8653 29.5973 16.7033 32.253C19.0168 34.4174 24.2842 33.5632 27.2114 33.5073L27.1838 32.6878C27.1239 32.3127 27.0199 31.9211 27.1524 31.5527C27.2181 31.3698 27.2328 31.3858 27.4036 31.2981C28.0811 30.9503 69.4051 31.1284 73.2357 31.2556C73.2357 31.2556 74.1564 31.2556 75.2979 31.2556C75.2979 33.5033 75.2979 33.5033 75.2979 33.5033L74.9036 33.4875C73.3323 33.4939 71.7472 33.5447 70.181 33.4074C69.1086 33.9649 68.2837 34.5242 67.9221 35.751C67.6838 36.5589 67.6806 37.449 68.1025 38.1998C68.5861 39.06 69.5708 39.5994 70.5214 39.7916C71.8573 40.0616 73.4995 39.7903 74.876 39.8332L75.0063 39.7973C75.1162 40.3247 75.1907 40.7396 75.1168 41.276L74.7416 41.4922C69.4666 41.6974 28.1244 41.8093 27.1914 41.2737C27.1354 40.831 27.0694 40.3962 26.9847 39.9577C26.4754 39.926 26.8048 39.8721 26.3469 39.6361C22.4371 39.5829 17.6393 39.7853 13.7598 39.3525Z" fill="#BDBCBC"/>
<path d="M13.7598 39.3525C11.929 37.5523 5.19685 29.0777 3.8989 26.8552C3.6525 26.4332 3.51032 25.9777 3.4458 25.4949C3.29025 24.3291 3.71702 23.1477 4.49481 22.2736C5.14931 21.5376 6.05805 21.0348 7.05719 20.9902C11.5767 20.7884 13.8653 29.5973 16.7033 32.253C19.0168 34.4174 24.2842 33.5632 27.2114 33.5073L27.465 33.4905C29.3351 33.484 31.3724 33.3235 33.2206 33.5634C33.8548 34.0299 34.3741 34.4353 34.8505 35.0691C35.2251 36.1638 35.4282 37.1584 34.8335 38.2437C34.4248 38.9894 33.5842 39.4083 32.7831 39.6133C31.0401 40.0591 28.9654 39.8326 27.1784 39.7987C26.7048 39.5925 26.1294 39.6732 25.6152 39.6764C21.7054 39.6232 17.6393 39.7853 13.7598 39.3525Z" fill="black"/>
<path d="M3.01098 28.1997C5.36241 29.8672 9.45172 36.8421 12.0712 39.3985C14.1622 41.4393 17.533 40.9096 20.2335 40.8955C19.8776 44.1553 19.3262 47.1937 17.5397 50.0352C16.4899 51.7049 15.238 53.0976 14.7348 55.0486C13.5254 59.7387 13.4651 66.2339 12.6397 71.2469C11.7178 76.8452 9.65801 82.4816 8.17755 87.9769C7.83418 89.1491 7.58354 90.5304 7.04025 91.623C6.5863 92.5361 5.79323 93.1859 4.80512 93.463C3.75866 93.7564 2.57147 93.6024 1.64279 93.0387C1.42675 92.9081 1.22706 92.7527 1.04773 92.5754C-1.16639 90.366 1.29603 84.4318 2.02395 81.7637C2.93376 78.428 4.6014 73.917 4.89618 70.562C5.08952 68.3631 4.64767 66.0205 4.39915 63.8315C3.93311 59.7276 3.35077 55.4524 3.36074 51.3239C3.37262 46.4199 4.9904 41.5037 4.70071 36.63C4.53263 33.8063 3.66803 30.9475 3.01098 28.1997Z" fill="black"/>
<path d="M99.7704 28.2139C100.048 29.7801 98.3432 34.5554 98.2586 36.7318C98.0678 41.64 99.5998 46.5396 99.5797 51.4648C99.5591 56.4754 97.3853 68.3867 98.3776 72.2651C99.3347 76.0058 100.398 79.7243 101.409 83.4515C101.906 85.2871 102.636 87.3161 102.797 89.2107C102.876 90.1311 102.776 91.1066 102.342 91.9358C101.95 92.6852 101.323 93.2183 100.507 93.4664C99.5024 93.7718 98.2093 93.7295 97.3108 93.1657C95.6786 92.1417 95.3059 89.7951 94.8575 88.0788C93.3486 82.6768 91.4541 77.1206 90.3962 71.6238C89.3094 65.9768 88.9484 60.0162 88.3022 54.2956C85.0515 50.1146 83.2578 46.2092 82.7969 40.8975C84.4898 40.8746 86.2334 41.0152 87.9167 40.8218C88.7238 40.729 89.4479 40.5495 90.1133 40.0591C92.3223 38.4313 97.7093 30.8458 99.7704 28.2139Z" fill="black"/>
<path d="M207.311 52.3168C211.445 51.9698 215.694 52.2888 219.837 52.4467C220.07 55.4174 220.038 58.2955 219.837 61.2685L214.983 61.2721L214.981 87.9422L214.985 90.0442C211.594 90.4555 208.084 90.3539 204.69 90.0577L204.701 52.4734L207.311 52.3168Z" fill="url(#paint3_linear_6339_3494)"/>
<path d="M137.006 35.8588C138.553 35.3672 140.106 34.8988 141.666 34.4541L141.649 40.4593C141.67 46.8242 141.785 53.2189 141.637 59.5807C138.008 62.0204 134.58 66.1685 131.439 69.2779L131.405 37.507C133.269 36.9478 135.136 36.3984 137.006 35.8588Z" fill="url(#paint4_linear_6339_3494)"/>
<path d="M141.637 59.5811L141.677 90.0539C138.317 90.4015 134.786 90.4478 131.424 90.0842C131.424 83.1642 131.238 76.1921 131.439 69.2782C134.58 66.1688 138.008 62.0208 141.637 59.5811Z" fill="#F47724"/>
<path d="M10.1377 0.189377C15.0812 -0.824388 19.9155 2.33341 20.9237 7.23468C21.932 12.1359 18.7306 16.9165 13.7812 17.9008C8.85251 18.881 4.05266 15.7253 3.04885 10.8446C2.04482 5.96416 5.2152 1.19874 10.1377 0.189377Z" fill="black"/>
<path d="M89.1204 0.197145C94.0741 -0.83093 98.9249 2.33593 99.9257 7.25192C100.927 12.1677 97.6948 16.9506 92.7265 17.9061C87.8095 18.8517 83.0436 15.6897 82.0529 10.825C81.0623 5.96016 84.2183 1.21448 89.1204 0.197145Z" fill="black"/>
<path d="M75.0466 33.5033C78.1183 33.5569 83.9169 34.4552 86.2297 32.2895C89.128 29.5756 91.2398 21.0293 95.7615 21.068C96.8336 21.0798 97.8506 21.5415 98.5596 22.3389C99.2748 23.1283 99.6651 24.1871 99.5681 25.2499C99.5235 25.7596 99.3782 26.2555 99.1409 26.7099C97.983 28.897 91.0514 37.4503 89.1615 39.368C84.468 39.8456 79.6892 39.3098 75.0059 39.7972L74.8756 39.8332C73.4991 39.7903 71.8569 40.0616 70.521 39.7915C69.5704 39.5993 68.5857 39.06 68.1021 38.1997C67.6802 37.449 67.6833 36.5589 67.9217 35.751C68.2833 34.5242 69.1082 33.9648 70.1806 33.4074C71.7468 33.5447 73.3319 33.4938 74.9032 33.4875L75.0466 33.5033Z" fill="black"/>
<path d="M9.45367 19.7413C11.532 19.5388 13.4995 19.5861 15.4874 20.2832C17.565 21.0114 19.4456 22.3866 20.3708 24.4138C21.1953 26.2197 21.3061 30.628 20.6249 32.3894C19.9657 32.3467 19.1601 32.3395 18.5727 32.0249C15.7395 30.5067 13.6343 24.2363 11.3191 21.6319C10.6464 20.8751 9.89 20.5488 9.08887 19.9669L9.45367 19.7413Z" fill="black"/>
<path d="M89.937 19.6738C91.4171 19.5975 92.8093 19.6786 94.2787 19.8223C93.62 20.1501 92.9243 20.4779 92.3695 20.9658C90.1098 22.9521 87.238 28.5147 85.5423 31.2467C85.2841 31.4997 85.0249 31.723 84.7005 31.8912C84.1733 32.1648 83.2304 32.5605 82.6328 32.3446C82.3692 32.2493 82.3057 32.1488 82.217 31.8782C81.5627 29.879 81.9912 25.151 83.186 23.3811C84.7208 21.1079 87.3513 20.1884 89.937 19.6738Z" fill="black"/>
<defs>
<linearGradient id="paint0_linear_6339_3494" x1="159.706" y1="52.3934" x2="157.341" y2="106.723" gradientUnits="userSpaceOnUse">
<stop stop-color="#F78B20"/>
<stop offset="1" stop-color="#F25B2A"/>
</linearGradient>
<linearGradient id="paint1_linear_6339_3494" x1="115.206" y1="52.172" x2="114.564" y2="89.874" gradientUnits="userSpaceOnUse">
<stop stop-color="#F78B20"/>
<stop offset="1" stop-color="#F36A27"/>
</linearGradient>
<linearGradient id="paint2_linear_6339_3494" x1="188.838" y1="52.1403" x2="187.692" y2="89.8751" gradientUnits="userSpaceOnUse">
<stop stop-color="#F88B20"/>
<stop offset="1" stop-color="#F36A27"/>
</linearGradient>
<linearGradient id="paint3_linear_6339_3494" x1="212.778" y1="51.9667" x2="208.386" y2="90.0133" gradientUnits="userSpaceOnUse">
<stop stop-color="#F88B20"/>
<stop offset="1" stop-color="#F36A27"/>
</linearGradient>
<linearGradient id="paint4_linear_6339_3494" x1="136.658" y1="36.4625" x2="136.097" y2="67.4485" gradientUnits="userSpaceOnUse">
<stop stop-color="#F9981D"/>
<stop offset="1" stop-color="#F67F23"/>
</linearGradient>
</defs>
</svg>
