<svg width="32" height="33" viewBox="0 0 32 33" fill="none" xmlns="http://www.w3.org/2000/svg">
<path d="M18.3033 5.09207L20.6497 9.82367C20.9697 10.4823 21.8229 11.1141 22.5429 11.2351L26.7957 11.9475C29.5154 12.4045 30.1554 14.394 28.1956 16.3565L24.8893 19.6901C24.3293 20.2546 24.0228 21.3434 24.196 22.1232L25.1426 26.2498C25.8892 29.5162 24.1693 30.7798 21.303 29.0726L17.3168 26.6934C16.5969 26.2633 15.4104 26.2633 14.677 26.6934L10.6909 29.0726C7.83784 30.7798 6.1047 29.5028 6.85129 26.2498L7.79785 22.1232C7.97116 21.3434 7.66453 20.2546 7.10458 19.6901L3.79829 16.3565C1.85184 14.394 2.47844 12.4045 5.19813 11.9475L9.451 11.2351C10.1576 11.1141 11.0108 10.4823 11.3308 9.82367L13.6772 5.09207C14.957 2.52465 17.0368 2.52465 18.3033 5.09207Z" stroke="#3182CE" stroke-width="2" stroke-linecap="round" stroke-linejoin="round"/>
</svg>
