<svg width="14" height="18" viewBox="0 0 14 18" fill="none" xmlns="http://www.w3.org/2000/svg">
<path d="M12.833 4.83301V14C12.833 15.8409 11.3409 17.333 9.5 17.333H4.5C2.65905 17.333 1.16699 15.8409 1.16699 14V4.83301H12.833ZM5.33301 7.54199C4.98798 7.54217 4.70801 7.82192 4.70801 8.16699V14C4.70801 14.3451 4.98798 14.6248 5.33301 14.625C5.67819 14.625 5.95801 14.3452 5.95801 14V8.16699C5.95801 7.82181 5.67819 7.54199 5.33301 7.54199ZM8.66699 7.54199C8.32181 7.54199 8.04199 7.82181 8.04199 8.16699V14C8.04199 14.3452 8.32181 14.625 8.66699 14.625C9.01202 14.6248 9.29199 14.3451 9.29199 14V8.16699C9.29199 7.82192 9.01202 7.54217 8.66699 7.54199ZM7.77441 0.666992C8.33167 0.666992 8.85202 0.945515 9.16113 1.40918L9.91699 2.54199H13.042C13.387 2.54217 13.667 2.82192 13.667 3.16699C13.6668 3.51191 13.3869 3.79182 13.042 3.79199H0.958008C0.613088 3.79182 0.333184 3.51191 0.333008 3.16699C0.333008 2.82192 0.612979 2.54217 0.958008 2.54199H4.08301L4.83887 1.40918C5.14798 0.945515 5.66833 0.666992 6.22559 0.666992H7.77441Z" fill="#E3342F"/>
</svg>
