<svg width="298" height="242" viewBox="0 0 298 242" fill="none" xmlns="http://www.w3.org/2000/svg">
<g clip-path="url(#clip0_6339_3615)">
<path d="M237.901 44.081C236.353 61.1589 231.943 79.1665 225.026 96.5415C216.473 118.028 204.787 136.953 191.232 151.271L190.479 150.614C203.969 136.365 215.602 117.524 224.12 96.126C231.817 76.7894 236.396 56.6668 237.366 37.9424L238.328 38.1035C238.226 40.0811 238.083 42.0736 237.901 44.081Z" fill="#F2F2F2"/>
<path d="M244.066 143.266C225.027 173.594 201.928 195.264 179.024 204.283L178.561 203.433C201.306 194.476 224.27 172.917 243.222 142.727L244.066 143.266Z" fill="#F2F2F2"/>
<path d="M237.439 65.3433C235.891 82.4211 231.48 100.429 224.564 117.804C216.011 139.29 204.325 158.215 190.769 172.533L190.017 171.876C203.507 157.627 215.14 138.786 223.657 117.388C231.355 98.0516 235.933 77.929 236.904 59.2046L237.865 59.3657C237.763 61.3433 237.621 63.3358 237.439 65.3433Z" fill="#F2F2F2"/>
<path d="M23.6958 109.188H11.2035C10.9366 109.188 10.673 109.128 10.4326 109.012C10.1921 108.896 9.98102 108.727 9.8151 108.518C9.65118 108.314 9.53554 108.075 9.47685 107.82C9.41815 107.565 9.41793 107.3 9.4762 107.045C10.666 101.788 10.5912 96.3243 9.25813 91.1025C9.17381 90.7587 9.1942 90.3975 9.31667 90.0654C9.43914 89.7333 9.65809 89.4455 9.94533 89.239C16.3689 84.6133 21.4276 84.7475 24.9812 89.6386C25.1413 89.8616 25.2478 90.1186 25.292 90.3897C26.2415 96.1049 26.2941 101.933 25.4478 107.665C25.389 108.088 25.1791 108.475 24.8569 108.755C24.5348 109.035 24.1223 109.189 23.6958 109.188Z" fill="#FFF0F0"/>
<path d="M19.8227 96.6619H15.5254C15.2878 96.6619 15.0598 96.5674 14.8918 96.3992C14.7238 96.2309 14.6294 96.0027 14.6294 95.7648C14.6294 95.5269 14.7238 95.2987 14.8918 95.1304C15.0598 94.9622 15.2878 94.8677 15.5254 94.8677H19.8227C20.0601 94.8682 20.2875 94.9629 20.4551 95.1311C20.6227 95.2993 20.7169 95.5272 20.7169 95.7648C20.7169 96.0024 20.6227 96.2303 20.4551 96.3985C20.2875 96.5667 20.0601 96.6614 19.8227 96.6619Z" fill="white"/>
<path d="M19.8227 99.8079H15.5254C15.2878 99.8079 15.0598 99.7134 14.8918 99.5452C14.7238 99.3769 14.6294 99.1487 14.6294 98.9108C14.6294 98.6729 14.7238 98.4447 14.8918 98.2764C15.0598 98.1082 15.2878 98.0137 15.5254 98.0137H19.8227C20.0601 98.0142 20.2875 98.1089 20.4551 98.2771C20.6227 98.4453 20.7169 98.6732 20.7169 98.9108C20.7169 99.1484 20.6227 99.3763 20.4551 99.5445C20.2875 99.7127 20.0601 99.8074 19.8227 99.8079Z" fill="white"/>
<path d="M19.8227 102.954H15.5254C15.2878 102.954 15.0598 102.86 14.8918 102.692C14.7238 102.523 14.6294 102.295 14.6294 102.057C14.6294 101.819 14.7238 101.591 14.8918 101.423C15.0598 101.255 15.2878 101.16 15.5254 101.16H19.8227C20.0601 101.161 20.2875 101.255 20.4551 101.424C20.6227 101.592 20.7169 101.82 20.7169 102.057C20.7169 102.295 20.6227 102.523 20.4551 102.691C20.2875 102.859 20.0601 102.954 19.8227 102.954Z" fill="white"/>
<path d="M250.729 165.034H238.237C237.97 165.035 237.707 164.975 237.466 164.859C237.226 164.743 237.015 164.574 236.849 164.365C236.685 164.161 236.569 163.922 236.511 163.667C236.452 163.412 236.452 163.147 236.51 162.892C237.7 157.635 237.625 152.171 236.292 146.949C236.208 146.605 236.228 146.244 236.35 145.912C236.473 145.58 236.692 145.292 236.979 145.086C243.403 140.46 248.461 140.594 252.015 145.485C252.175 145.708 252.281 145.965 252.326 146.236C253.275 151.952 253.328 157.78 252.481 163.512C252.423 163.935 252.213 164.322 251.891 164.602C251.568 164.882 251.156 165.035 250.729 165.034Z" fill="#E6E6E6"/>
<path d="M246.857 152.509H242.559C242.322 152.508 242.094 152.413 241.927 152.245C241.759 152.077 241.665 151.849 241.665 151.611C241.665 151.374 241.759 151.146 241.927 150.978C242.094 150.81 242.322 150.715 242.559 150.714H246.857C247.094 150.714 247.322 150.809 247.49 150.977C247.658 151.145 247.753 151.374 247.753 151.611C247.753 151.849 247.658 152.078 247.49 152.246C247.322 152.414 247.094 152.509 246.857 152.509Z" fill="white"/>
<path d="M246.857 155.655H242.559C242.322 155.654 242.094 155.559 241.927 155.391C241.759 155.223 241.665 154.995 241.665 154.757C241.665 154.52 241.759 154.292 241.927 154.124C242.094 153.956 242.322 153.861 242.559 153.86H246.857C247.094 153.86 247.322 153.955 247.49 154.123C247.658 154.291 247.753 154.52 247.753 154.757C247.753 154.995 247.658 155.224 247.49 155.392C247.322 155.56 247.094 155.655 246.857 155.655Z" fill="white"/>
<path d="M246.857 158.801H242.559C242.322 158.801 242.094 158.706 241.927 158.538C241.759 158.369 241.665 158.142 241.665 157.904C241.665 157.666 241.759 157.438 241.927 157.27C242.094 157.102 242.322 157.007 242.559 157.007H246.857C247.094 157.007 247.322 157.101 247.49 157.27C247.658 157.438 247.753 157.666 247.753 157.904C247.753 158.142 247.658 158.37 247.49 158.538C247.322 158.707 247.094 158.801 246.857 158.801Z" fill="white"/>
<path d="M298 241.532C298 241.593 297.988 241.654 297.965 241.711C297.941 241.768 297.907 241.82 297.863 241.863C297.82 241.907 297.768 241.941 297.712 241.965C297.655 241.988 297.594 242 297.533 242H0.467424C0.343456 242 0.224569 241.951 0.13691 241.863C0.0492516 241.775 0 241.656 0 241.532C0 241.408 0.0492516 241.289 0.13691 241.201C0.224569 241.113 0.343456 241.064 0.467424 241.064H297.533C297.594 241.064 297.655 241.076 297.712 241.099C297.768 241.123 297.82 241.157 297.863 241.201C297.907 241.244 297.941 241.296 297.965 241.353C297.988 241.41 298 241.47 298 241.532Z" fill="#CCCCCC"/>
<path d="M78.3636 212.877L77.5845 202.027C72.4808 199.472 66.8314 198.204 61.127 198.332C69.1524 204.543 68.5095 216.957 74.0676 225.452C75.8213 228.089 78.1452 230.296 80.8668 231.911C83.5885 233.526 86.6383 234.507 89.7901 234.782L96.4692 238.629C97.2332 233.573 96.8934 228.411 95.4732 223.499C94.053 218.587 91.5861 214.042 88.2425 210.176C86.3452 208.027 84.1852 206.124 81.8133 204.515C80.3533 208.712 78.3636 212.877 78.3636 212.877Z" fill="#FFF0F0"/>
<path d="M219.636 214.45L220.416 203.6C225.519 201.046 231.169 199.777 236.873 199.905C228.848 206.116 229.491 218.53 223.933 227.026C222.179 229.662 219.855 231.87 217.133 233.485C214.412 235.1 211.362 236.081 208.21 236.355L201.531 240.202C200.767 235.146 201.107 229.984 202.527 225.072C203.947 220.16 206.414 215.615 209.758 211.75C211.655 209.6 213.815 207.698 216.187 206.088C217.647 210.285 219.636 214.45 219.636 214.45Z" fill="#FFF0F0"/>
<path d="M145.465 92.0064C149.587 92.0064 152.928 88.6609 152.928 84.534C152.928 80.4071 149.587 77.0615 145.465 77.0615C141.343 77.0615 138.002 80.4071 138.002 84.534C138.002 88.6609 141.343 92.0064 145.465 92.0064Z" fill="#FF6B6B"/>
<path d="M149.296 81.42C149.184 81.3128 149.034 81.2529 148.879 81.2529C148.724 81.2529 148.575 81.3128 148.463 81.42C146.879 82.6845 145.457 84.1392 144.228 85.7512C143.926 85.1666 143.624 84.582 143.322 83.9974C142.974 83.3227 141.957 83.9187 142.305 84.5929C142.746 85.448 143.188 86.303 143.629 87.1581C143.682 87.2454 143.757 87.3175 143.846 87.3675C143.935 87.4176 144.036 87.4439 144.138 87.4439C144.24 87.4439 144.34 87.4176 144.429 87.3675C144.518 87.3175 144.593 87.2454 144.646 87.1581C145.956 85.3111 147.522 83.6599 149.296 82.2543C149.405 82.1432 149.467 81.9933 149.467 81.8371C149.467 81.681 149.405 81.5311 149.296 81.42Z" fill="white"/>
<path d="M112.071 105.723L100.817 88.0271L113.849 81.0391L117.27 94.5405L141.37 107.58C142.321 107.237 143.352 107.179 144.336 107.412C145.32 107.646 146.215 108.161 146.911 108.895C147.608 109.628 148.076 110.549 148.259 111.545C148.442 112.541 148.332 113.569 147.942 114.503C147.551 115.437 146.898 116.237 146.061 116.806C145.225 117.374 144.241 117.687 143.23 117.706C142.219 117.724 141.224 117.448 140.367 116.91C139.511 116.373 138.828 115.597 138.404 114.678L112.071 105.723Z" fill="#A0616A"/>
<path d="M92.5951 66.8021C89.059 72.0004 101.625 90.896 101.625 90.896C102.238 89.5747 108.09 104.412 109.07 103.535C111.855 101.044 116.216 94.1056 118.64 93.7963C120.026 93.6194 115.425 83.776 115.425 83.776C115.425 83.776 113.322 77.9634 110.469 70.5384C109.701 68.4243 108.411 66.539 106.72 65.0582C105.029 63.5773 102.991 62.5489 100.796 62.0688C100.796 62.0688 96.1312 61.6038 92.5951 66.8021Z" fill="#3F3D56"/>
<path d="M92.7678 236.166L98.1125 236.165L100.655 215.523L92.7666 215.524L92.7678 236.166Z" fill="#A0616A"/>
<path d="M91.4043 234.418L92.9087 234.418L98.7822 232.026L101.93 234.418H101.931C103.71 234.418 105.416 235.125 106.674 236.385C107.932 237.644 108.638 239.353 108.638 241.134V241.352L91.4046 241.353L91.4043 234.418Z" fill="#2F2E41"/>
<path d="M117.598 236.166L122.943 236.165L125.486 215.523L117.598 215.524L117.598 236.166Z" fill="#A0616A"/>
<path d="M116.235 234.418L117.74 234.418L123.613 232.026L126.761 234.418H126.762C128.541 234.418 130.247 235.125 131.505 236.385C132.763 237.644 133.469 239.353 133.47 241.134V241.352L116.236 241.353L116.235 234.418Z" fill="#2F2E41"/>
<path d="M119.912 123.316L85.1473 124.186C78.5446 127.777 78.4444 135.548 80.6078 144.776C80.6078 144.776 79.8774 150.26 81.3381 151.722C82.7987 153.185 83.5291 153.185 82.7987 155.744C82.0684 158.304 85.927 162.484 85.4584 162.953C84.9897 163.422 83.8942 165.982 83.8942 165.982L87.5458 186.822C87.5458 186.822 90.102 223.019 90.8323 223.75C91.5626 224.481 92.2929 223.75 91.5626 225.578C90.8323 227.406 90.102 226.675 90.8323 227.406C91.4792 228.105 92.0887 228.837 92.6581 229.6H101.487C101.487 229.6 102.152 225.944 102.152 225.578C102.152 225.212 102.883 223.019 102.883 222.653C102.883 222.287 102.237 221.641 102.237 221.641C102.014 220.898 101.863 220.135 101.787 219.362C101.787 218.631 99.5962 190.478 99.5962 190.478L103.978 153.916L114.568 189.747C114.568 189.747 114.568 221.191 115.298 221.922C116.028 222.653 116.028 222.287 115.663 223.75C115.298 225.212 113.837 224.847 114.933 225.944C116.028 227.041 116.394 225.212 116.028 227.041L115.663 228.869L126.618 229.026C126.618 229.026 128.079 225.944 127.348 224.847C126.618 223.75 126.662 224.049 127.553 222.254C128.444 220.459 128.809 220.094 128.444 219.728C128.079 219.363 128.079 217.418 128.079 217.418L126.253 182.435C126.253 182.435 125.888 145.507 125.888 144.41C125.86 143.846 125.964 143.283 126.191 142.765V141.276L124.792 136.001L119.912 123.316Z" fill="#2F2E41"/>
<path d="M99.0282 50.9367C104.994 50.9367 109.83 46.0945 109.83 40.1214C109.83 34.1483 104.994 29.3062 99.0282 29.3062C93.0626 29.3062 88.2266 34.1483 88.2266 40.1214C88.2266 46.0945 93.0626 50.9367 99.0282 50.9367Z" fill="#A0616A"/>
<path d="M104.429 58.0847C106.756 59.4699 108.148 62.015 108.947 64.6049C110.427 69.3997 111.317 74.3572 111.599 79.3677L112.443 94.3682L122.897 126.309C113.837 133.984 79.7839 128.053 79.7839 128.053C79.7839 128.053 78.7386 127.704 79.7839 126.657C80.8292 125.611 81.8468 126.538 80.8015 125.491C79.7562 124.445 80.4768 125.611 80.8253 124.564C81.1737 123.517 80.8253 124.215 80.4768 123.866C80.1284 123.517 83.1743 120.378 83.1743 120.378L80.3867 102.044L76.9023 65.0623C81.0837 59.8291 89.4928 56.7441 89.4928 56.7441L91.6656 52.8281L102.53 53.6983L104.429 58.0847Z" fill="#3F3D56"/>
<path d="M107.933 34.3755C108.772 35.0024 109.394 35.8772 109.711 36.8767C109.833 35.2433 109.841 33.6034 109.734 31.969C109.607 30.8205 108.799 30.5621 107.864 30.2628C107.02 29.9923 106.065 29.6868 105.808 28.5718C102.412 25.2645 96.5016 25.4313 92.4564 26.5849C90.2306 27.2197 88.9498 28.0354 88.8352 28.5132L88.8114 28.6115L88.7211 28.6568C87.0053 29.5158 86.6713 32.2282 86.6934 34.3523C86.7352 38.3543 88.1153 42.8996 88.8927 43.2689C88.9339 43.2884 88.9443 43.2808 88.9621 43.2659C90.1327 42.3292 91.561 43.3371 92.1886 43.885C92.5588 41.3977 93.7508 39.1063 95.5742 37.3768C97.3976 35.6474 99.7473 34.5796 102.248 34.344C103.064 34.265 103.875 34.129 104.672 33.937C105.077 33.8322 105.493 33.7775 105.911 33.7743C106.63 33.7633 107.336 33.9731 107.933 34.3755Z" fill="#2F2E41"/>
<path d="M174.988 131.934L195.766 110.807L201.241 93.9101L192.431 90.3423C188.067 94.7498 183.575 108.243 183.575 108.243L169.393 127.301C169.28 127.343 169.167 127.387 169.055 127.44C168.402 127.749 167.84 128.221 167.423 128.811C167.005 129.401 166.747 130.088 166.672 130.808C166.598 131.527 166.71 132.253 166.998 132.916C167.285 133.579 167.739 134.157 168.315 134.593C168.891 135.029 169.569 135.309 170.285 135.406C171.001 135.503 171.729 135.413 172.4 135.146C173.071 134.879 173.661 134.442 174.115 133.88C174.568 133.317 174.869 132.647 174.988 131.934Z" fill="#FFB8B8"/>
<path d="M190.028 92.2755L201.169 95.5024L201.211 95.4944C205.306 94.6982 208.545 87.8841 210.541 82.308C211.198 80.4688 211.133 78.4486 210.359 76.6557C209.585 74.8628 208.16 73.431 206.372 72.6499C205.049 72.0825 203.594 71.8969 202.172 72.1141C200.749 72.3313 199.415 72.9426 198.322 73.879L192.767 78.6681L190.028 92.2755Z" fill="#6C63FF"/>
<path d="M180.497 235.538L174.505 235.537L171.655 212.398L180.497 212.399L180.497 235.538Z" fill="#FFB8B8"/>
<path d="M182.025 233.579L180.339 233.579L173.754 230.898L170.226 233.579H170.225C168.231 233.579 166.318 234.372 164.908 235.784C163.498 237.196 162.706 239.111 162.706 241.107V241.352L182.025 241.353L182.025 233.579Z" fill="#2F2E41"/>
<path d="M207.082 235.538L201.09 235.537L198.24 212.398L207.083 212.399L207.082 235.538Z" fill="#FFB8B8"/>
<path d="M208.611 233.579L206.924 233.579L200.34 230.898L196.811 233.579H196.811C194.816 233.579 192.904 234.372 191.494 235.784C190.083 237.196 189.291 239.111 189.291 241.107V241.352L208.61 241.353L208.611 233.579Z" fill="#2F2E41"/>
<path d="M216.218 135.869C216.218 135.869 216.917 144.275 215.168 152.33C213.419 160.386 213.419 183.074 213.419 183.074L209.571 227.284L198.028 226.233L194.879 152.33L183.686 177.198L184.735 180.701L183.337 181.576C183.337 181.576 184.385 188.406 183.686 188.406C182.986 188.406 181.237 189.457 181.237 189.457L182.636 225.532L170.743 225.182L166.545 174.396L171.092 145.325L171.442 139.721L173.016 139.786L173.818 137.445L175.29 133.417L216.218 135.869Z" fill="#2F2E41"/>
<path d="M216.822 137.635L216.885 137.547C220.214 132.88 215.206 121.664 214.451 120.038L217.632 119.004L216.916 112.907L216.577 110.189L219.008 107.755L219.015 107.694L220.414 95.4351L222.449 87.293C223.215 84.215 223.15 80.9881 222.259 77.9438C221.369 74.8994 219.685 72.1471 217.381 69.9695L212.679 65.53L206.964 57.063H197.747L194.587 63.0394C191.523 63.7484 188.805 65.5111 186.906 68.0204C185.007 70.5297 184.047 73.6266 184.194 76.7717L184.91 92.4462L182.106 111.962L182.104 115.494L178.949 119.005L179.638 122.455L177.237 123.485L176.176 128.439C175.738 129.019 172.841 132.886 172.841 133.943C172.841 134.101 172.958 134.255 173.209 134.425C175.183 135.763 186.093 138.491 190.921 136.557C196.065 134.498 216.51 137.587 216.716 137.618L216.822 137.635Z" fill="#FF6B6B"/>
<path d="M201.165 54.3296C207.906 54.3296 213.371 48.858 213.371 42.1084C213.371 35.3588 207.906 29.8872 201.165 29.8872C194.424 29.8872 188.959 35.3588 188.959 42.1084C188.959 48.858 194.424 54.3296 201.165 54.3296Z" fill="#FFB8B8"/>
<path d="M199.996 54.5274C201.886 54.5081 203.771 54.3271 205.631 53.9865C207.472 53.5619 211.533 50.4171 212.64 48.5594C213.463 47.1791 213.956 45.044 214.226 43.4961C214.589 41.4476 214.519 39.3454 214.02 37.3257C213.521 35.306 212.603 33.4138 211.327 31.7717C210.835 31.0838 210.167 30.5417 209.393 30.2029C209.324 30.1781 209.254 30.1564 209.183 30.1381C208.06 29.8732 207.042 29.2785 206.26 28.4303C206.108 28.2586 205.944 28.098 205.769 27.9499C204.892 27.2463 203.86 26.7606 202.759 26.5327C200.98 26.1049 198.436 26.6409 195.196 28.1271C193.569 28.8738 191.763 28.6655 190.371 28.4005C190.292 28.3875 190.212 28.3952 190.138 28.4228C190.064 28.4504 189.998 28.497 189.948 28.5579C189.373 29.1268 188.604 29.4568 187.797 29.4816C187.302 29.5161 186.801 30.2156 186.196 31.1264C186.059 31.3332 185.899 31.5745 185.783 31.7218L185.76 31.4452L185.488 31.7614C185.06 32.2584 184.765 32.8556 184.631 33.4974C184.496 34.1393 184.525 34.8048 184.716 35.4322C184.908 36.0595 185.254 36.6282 185.724 37.0853C186.194 37.5424 186.771 37.873 187.403 38.0464C187.904 38.1661 188.416 38.2343 188.931 38.2499C189.244 38.2699 189.567 38.2906 189.877 38.3363C190.873 38.5139 191.807 38.9471 192.586 39.5937C193.365 40.2402 193.963 41.0781 194.323 42.0254C194.407 42.2443 194.541 42.4407 194.714 42.5996C194.887 42.7585 195.094 42.8755 195.319 42.9416C195.544 43.0077 195.781 43.0211 196.012 42.9809C196.243 42.9406 196.462 42.8478 196.651 42.7094C196.966 42.4503 197.34 42.2714 197.739 42.1879C198.138 42.1044 198.551 42.1188 198.944 42.2299C199.285 42.4085 199.555 42.6992 199.707 43.0532C199.892 43.4472 200.19 43.7772 200.562 44.0012C201.833 44.6161 201.993 47.4819 201.605 49.8844C201.23 52.2002 200.415 53.8895 199.622 53.9925C199.012 54.0717 198.943 54.117 198.902 54.2264L198.865 54.3244L198.936 54.4134C199.277 54.5273 199.638 54.5662 199.996 54.5274Z" fill="#2F2E41"/>
<path d="M189.869 93.5822L184.002 86.0972C178.026 87.7449 167.422 97.2086 167.422 97.2086L145.645 106.671C144.918 106.549 144.172 106.62 143.481 106.878C142.791 107.137 142.18 107.572 141.712 108.142C141.243 108.711 140.932 109.394 140.811 110.122C140.69 110.85 140.762 111.597 141.021 112.288C141.28 112.979 141.716 113.59 142.285 114.059C142.854 114.527 143.537 114.837 144.264 114.958C144.991 115.078 145.737 115.005 146.427 114.745C147.117 114.485 147.726 114.048 148.193 113.477L176.721 105.509L189.869 93.5822Z" fill="#FFB8B8"/>
<path d="M188.463 95.2937L197.72 84.9611L198.234 77.6396C198.33 76.2019 198.022 74.7661 197.346 73.4944C196.669 72.2227 195.651 71.1658 194.406 70.4431C192.711 69.4749 190.713 69.187 188.815 69.6375C186.917 70.0881 185.26 71.2435 184.18 72.8702C180.909 77.8062 177.391 84.4799 179.201 88.2425L179.22 88.2807L188.463 95.2937Z" fill="#FF6B6B"/>
<path d="M103.139 134.131L79.0789 121.793C77.3675 120.915 76.8006 118.587 77.8152 116.604L93.503 85.9339C94.5176 83.9503 96.7354 83.0505 98.4468 83.9281L122.507 96.266C124.219 97.1436 124.785 99.4713 123.771 101.455L108.083 132.125C107.068 134.109 104.851 135.008 103.139 134.131Z" fill="#E6E6E6"/>
<path d="M99.0281 128.459L82.6812 120.076C81.0784 119.254 80.5473 117.074 81.4976 115.216L94.5307 89.7363C95.481 87.8786 97.5581 87.036 99.1609 87.8579L118.905 97.9823C120.507 98.8042 121.038 100.984 120.088 102.842L113.008 116.684C108.775 124.959 106.168 132.12 99.0281 128.459Z" fill="#FFF0F0"/>
<path d="M107.11 114.544L92.6315 107.119C92.4545 106.993 92.3288 106.807 92.2773 106.596C92.2257 106.384 92.2519 106.161 92.351 105.968C92.4501 105.774 92.6155 105.622 92.817 105.54C93.0184 105.459 93.2425 105.452 93.4484 105.522L107.927 112.947C108.104 113.073 108.23 113.259 108.282 113.471C108.333 113.682 108.307 113.905 108.208 114.099C108.109 114.292 107.943 114.444 107.742 114.526C107.54 114.607 107.316 114.614 107.11 114.544Z" fill="#FF6B6B"/>
<path d="M94.322 111.969L91.0178 110.275C90.8407 110.148 90.715 109.962 90.6635 109.751C90.612 109.539 90.6382 109.317 90.7373 109.123C90.8364 108.929 91.0017 108.778 91.2032 108.696C91.4047 108.614 91.6288 108.608 91.8346 108.678L95.1389 110.372C95.3159 110.498 95.4416 110.684 95.4931 110.896C95.5446 111.107 95.5185 111.33 95.4194 111.524C95.3203 111.717 95.1549 111.869 94.9534 111.951C94.7519 112.033 94.5278 112.039 94.322 111.969Z" fill="#6C63FF"/>
<path d="M98.5604 118.125L89.404 113.429C89.227 113.303 89.1012 113.117 89.0497 112.906C88.9982 112.694 89.0244 112.471 89.1235 112.278C89.2226 112.084 89.388 111.932 89.5894 111.851C89.7909 111.769 90.015 111.762 90.2209 111.832L99.3773 116.528C99.5543 116.654 99.6801 116.84 99.7316 117.051C99.7831 117.263 99.7569 117.486 99.6578 117.68C99.5587 117.873 99.3933 118.025 99.1918 118.107C98.9904 118.188 98.7662 118.195 98.5604 118.125Z" fill="#FF6B6B"/>
<path d="M112.84 103.342L98.3615 95.9176C98.1845 95.7913 98.0587 95.6054 98.0072 95.394C97.9557 95.1825 97.9819 94.9596 98.081 94.7658C98.1801 94.5721 98.3455 94.4206 98.5469 94.3388C98.7484 94.2571 98.9725 94.2506 99.1784 94.3207L113.657 101.745C113.834 101.872 113.96 102.057 114.012 102.269C114.063 102.48 114.037 102.703 113.938 102.897C113.839 103.091 113.673 103.242 113.472 103.324C113.27 103.406 113.046 103.412 112.84 103.342Z" fill="#FF6B6B"/>
<path d="M100.051 100.767L96.7473 99.0729C96.5702 98.9466 96.4445 98.7607 96.393 98.5493C96.3415 98.3378 96.3677 98.1149 96.4668 97.9211C96.5659 97.7274 96.7312 97.5758 96.9327 97.4941C97.1342 97.4124 97.3583 97.4059 97.5641 97.4759L100.868 99.1703C101.045 99.2966 101.171 99.4825 101.223 99.6939C101.274 99.9054 101.248 100.128 101.149 100.322C101.05 100.516 100.884 100.667 100.683 100.749C100.481 100.831 100.257 100.837 100.051 100.767Z" fill="#FF6B6B"/>
<path d="M104.29 106.924L95.1335 102.228C94.9564 102.102 94.8307 101.916 94.7792 101.705C94.7277 101.493 94.7539 101.27 94.853 101.076C94.9521 100.883 95.1175 100.731 95.3189 100.649C95.5204 100.568 95.7445 100.561 95.9503 100.631L105.107 105.327C105.284 105.453 105.41 105.639 105.461 105.85C105.513 106.062 105.486 106.285 105.387 106.478C105.288 106.672 105.123 106.824 104.921 106.905C104.72 106.987 104.496 106.994 104.29 106.924Z" fill="#FF6B6B"/>
<path d="M83.2016 107.429L77.7661 87.1681L92.2913 84.415L91.5102 98.3221L110.595 117.998C111.606 117.957 112.606 118.211 113.475 118.729C114.344 119.247 115.043 120.007 115.488 120.916C115.933 121.826 116.103 122.845 115.98 123.85C115.856 124.855 115.443 125.802 114.791 126.576C114.139 127.349 113.276 127.917 112.307 128.208C111.339 128.499 110.307 128.502 109.337 128.216C108.367 127.93 107.501 127.368 106.844 126.598C106.188 125.828 105.769 124.883 105.64 123.879L83.2016 107.429Z" fill="#A0616A"/>
<path d="M76.2795 64.4513C71.3491 68.3485 77.6773 90.1478 77.6773 90.1478C78.657 89.0712 79.7956 104.982 80.9931 104.441C84.3967 102.901 90.6351 97.5911 93.0401 98.0239C94.4155 98.2714 92.9745 87.4994 92.9745 87.4994C92.9745 87.4994 92.7095 81.3229 92.2113 73.3829C92.1121 71.1355 91.4466 68.9498 90.2767 67.0292C89.1069 65.1086 87.4707 63.5156 85.5206 62.3985C85.5206 62.3985 81.2099 60.5541 76.2795 64.4513Z" fill="#3F3D56"/>
<path d="M158.317 152.4L145.187 146.193C144.906 146.061 144.659 145.867 144.464 145.625C144.269 145.384 144.13 145.101 144.06 144.799C143.989 144.503 143.985 144.195 144.05 143.898C144.115 143.6 144.246 143.322 144.434 143.082C148.237 138.215 150.849 132.524 152.059 126.464C152.151 126 152.4 125.583 152.765 125.282C153.129 124.982 153.587 124.817 154.059 124.816C160.756 124.839 165.76 127.287 168.934 132.092C169.101 132.342 169.212 132.625 169.258 132.922C169.305 133.22 169.287 133.524 169.204 133.813C167.366 140.154 164.57 146.176 160.913 151.671C160.641 152.086 160.229 152.389 159.751 152.523C159.274 152.657 158.764 152.614 158.317 152.4Z" fill="#E6E6E6"/>
<path d="M162.179 143.694L152.14 138.948C151.89 138.829 151.697 138.617 151.604 138.357C151.511 138.096 151.525 137.809 151.643 137.559C151.761 137.309 151.973 137.116 152.233 137.023C152.493 136.93 152.779 136.944 153.029 137.062L163.068 141.808C163.192 141.867 163.303 141.949 163.395 142.05C163.487 142.152 163.558 142.27 163.604 142.399C163.65 142.528 163.67 142.665 163.664 142.802C163.657 142.938 163.624 143.073 163.565 143.196C163.507 143.32 163.425 143.431 163.323 143.523C163.222 143.615 163.104 143.687 162.975 143.733C162.846 143.779 162.71 143.799 162.573 143.793C162.436 143.786 162.302 143.753 162.179 143.694Z" fill="white"/>
<path d="M163.738 140.387L153.699 135.64C153.45 135.522 153.257 135.31 153.164 135.049C153.07 134.789 153.084 134.502 153.202 134.252C153.32 134.002 153.532 133.809 153.792 133.716C154.052 133.623 154.339 133.637 154.589 133.755L164.628 138.501C164.877 138.619 165.07 138.832 165.163 139.092C165.257 139.352 165.243 139.639 165.125 139.889C165.007 140.139 164.794 140.332 164.534 140.426C164.274 140.519 163.988 140.505 163.738 140.387Z" fill="white"/>
<path d="M150.324 36.5816L149.39 36.6841C145.223 20.2902 137.147 8.93268 126.034 3.83915C111.906 -2.63562 94.4362 1.71231 76.8427 16.0822C59.1598 30.5254 43.5058 53.3395 32.7646 80.3228L31.8579 79.9074C42.6462 52.8061 58.3806 29.8819 76.1626 15.3583C94.0338 0.761389 111.86 -3.61842 126.357 3.02588C137.79 8.26536 146.077 19.8688 150.324 36.5816Z" fill="#F2F2F2"/>
<path d="M47.2263 57.9325C44.7825 63.0871 42.4581 68.4274 40.3174 73.8047C27.9993 104.749 21.7569 136.352 22.2671 165.198L21.3043 165.095C20.7937 136.142 27.054 104.43 39.4107 73.3893C41.5575 67.9967 43.8886 62.6414 46.3394 57.4722L47.2263 57.9325Z" fill="#F2F2F2"/>
<path d="M46.7639 79.1952C44.3201 84.3498 41.9956 89.6901 39.855 95.0674C27.5369 126.012 21.2945 157.615 21.8046 186.461L20.8419 186.358C20.3313 157.405 26.5916 125.693 38.9483 94.652C41.0951 89.2594 43.4261 83.9041 45.877 78.7349L46.7639 79.1952Z" fill="#F2F2F2"/>
<path d="M20.8883 86.9279C21.9526 85.3263 21.3227 83.0336 19.4814 81.807C17.6401 80.5805 15.2847 80.8845 14.2204 82.4862C13.1562 84.0878 13.7861 86.3805 15.6274 87.6071C17.4687 88.8337 19.8241 88.5296 20.8883 86.9279Z" fill="#CCCCCC"/>
<path d="M247.507 144.768C248.571 143.167 247.941 140.874 246.1 139.647C244.259 138.421 241.903 138.725 240.839 140.327C239.775 141.928 240.405 144.221 242.246 145.447C244.087 146.674 246.443 146.37 247.507 144.768Z" fill="#CCCCCC"/>
</g>
<defs>
<clipPath id="clip0_6339_3615">
<rect width="298" height="242" fill="white"/>
</clipPath>
</defs>
</svg>
