<svg width="98" height="94" viewBox="0 0 98 94" fill="none" xmlns="http://www.w3.org/2000/svg">
<g clip-path="url(#clip0_6433_7218)">
<path d="M46.2003 1.27528L43.2015 2.93841L6.25589 23.4285L3.2571 25.0917C1.802 25.9008 0.722081 27.2636 0.254279 28.8811C-0.213524 30.4986 -0.0310104 32.2386 0.761778 33.7195L28.2743 84.9736C29.0704 86.4527 30.4112 87.5504 32.0024 88.0259C33.5937 88.5014 35.3056 88.3159 36.7625 87.51L36.7703 87.5058L79.698 63.698L79.7057 63.6937C81.1608 62.8845 82.2407 61.5217 82.7085 59.9042C83.1764 58.2867 82.9938 56.5467 82.201 55.0658L54.6885 3.8117C53.8924 2.33264 52.5517 1.23495 50.9604 0.759445C49.3691 0.283939 47.6572 0.469452 46.2003 1.27528Z" fill="#F2F2F2"/>
<path d="M47.0635 2.88342L43.5117 4.85328L7.67205 24.73L4.12025 26.6998C3.08403 27.276 2.315 28.2465 1.98186 29.3984C1.64873 30.5502 1.7787 31.7894 2.34326 32.8439L29.8558 84.0981C30.4227 85.1513 31.3775 85.933 32.5107 86.2716C33.6439 86.6102 34.863 86.4781 35.9004 85.9043L35.9082 85.9L78.8359 62.0922L78.8437 62.0879C79.8799 61.5116 80.6489 60.5411 80.9821 59.3893C81.3152 58.2375 81.1852 56.9983 80.6207 55.9438L53.1081 4.68968C52.5412 3.63641 51.5864 2.85472 50.4533 2.5161C49.3201 2.17748 48.101 2.30958 47.0635 2.88342Z" fill="white"/>
<path d="M47.6566 18.7922L31.6463 27.6716C31.4037 27.8061 31.1185 27.8372 30.8534 27.758C30.5884 27.6788 30.3651 27.4958 30.2327 27.2492C30.1004 27.0027 30.0698 26.7128 30.1478 26.4434C30.2257 26.1739 30.4057 25.947 30.6483 25.8125L46.6587 16.9331C46.9012 16.7986 47.1864 16.7675 47.4515 16.8467C47.7166 16.9259 47.9399 17.1089 48.0722 17.3555C48.2045 17.602 48.2351 17.8919 48.1572 18.1613C48.0792 18.4308 47.8992 18.6577 47.6566 18.7922Z" fill="#F2F2F2"/>
<path d="M53.1126 19.8371L33.3298 30.8087C33.0873 30.9432 32.8021 30.9743 32.537 30.8951C32.2719 30.8159 32.0487 30.6329 31.9163 30.3863C31.784 30.1398 31.7534 29.8499 31.8314 29.5805C31.9093 29.311 32.0893 29.0841 32.3319 28.9496L52.1147 17.978C52.2348 17.9114 52.3666 17.8695 52.5026 17.8547C52.6387 17.8398 52.7762 17.8524 52.9075 17.8916C53.0388 17.9308 53.1611 17.996 53.2676 18.0833C53.3741 18.1705 53.4627 18.2783 53.5282 18.4004C53.5937 18.5224 53.6349 18.6564 53.6495 18.7947C53.6641 18.933 53.6517 19.0728 53.6132 19.2062C53.5746 19.3397 53.5105 19.464 53.4246 19.5723C53.3388 19.6805 53.2327 19.7705 53.1126 19.8371Z" fill="#F2F2F2"/>
<path d="M25.0637 23.976L10.303 32.1623C10.1868 32.2268 10.1006 32.3355 10.0632 32.4646C10.0259 32.5937 10.0405 32.7326 10.1039 32.8507L16.3894 44.5601C16.4528 44.6782 16.5598 44.7659 16.6868 44.8039C16.8138 44.8418 16.9504 44.8269 17.0667 44.7625L31.8273 36.5762C31.9435 36.5118 32.0298 36.403 32.0671 36.2739C32.1044 36.1448 32.0898 36.0059 32.0264 35.8878L25.7409 24.1784C25.6775 24.0603 25.5705 23.9726 25.4435 23.9347C25.3165 23.8967 25.1799 23.9116 25.0637 23.976Z" fill="#F2F2F2"/>
<path d="M55.6006 33.6496L33.8845 45.6934C33.7644 45.76 33.6326 45.8019 33.4966 45.8168C33.3605 45.8316 33.223 45.819 33.0917 45.7798C32.9605 45.7406 32.8381 45.6755 32.7316 45.5882C32.6251 45.5009 32.5365 45.3931 32.471 45.2711C32.4055 45.149 32.3643 45.015 32.3497 44.8767C32.3351 44.7384 32.3475 44.5986 32.386 44.4652C32.4246 44.3318 32.4887 44.2074 32.5746 44.0991C32.6605 43.9909 32.7665 43.9009 32.8866 43.8343L54.6027 31.7905C54.8452 31.656 55.1304 31.6249 55.3955 31.7041C55.6606 31.7833 55.8838 31.9663 56.0162 32.2129C56.1485 32.4594 56.1791 32.7493 56.1012 33.0187C56.0232 33.2882 55.8432 33.5151 55.6006 33.6496Z" fill="#F2F2F2"/>
<path d="M61.0566 34.6946L35.5681 48.8305C35.3256 48.9651 35.0404 48.9961 34.7753 48.9169C34.5102 48.8377 34.287 48.6547 34.1546 48.4082C34.0223 48.1616 33.9917 47.8717 34.0696 47.6023C34.1476 47.3328 34.3276 47.1059 34.5702 46.9714L60.0587 32.8354C60.3012 32.7009 60.5864 32.6698 60.8515 32.749C61.1166 32.8283 61.3398 33.0113 61.4722 33.2578C61.6045 33.5043 61.6351 33.7942 61.5572 34.0637C61.4792 34.3331 61.2992 34.5601 61.0566 34.6946Z" fill="#F2F2F2"/>
<path d="M25.6151 55.5574C28.0562 55.5574 30.035 53.546 30.035 51.0648C30.035 48.5837 28.0562 46.5723 25.6151 46.5723C23.1741 46.5723 21.1953 48.5837 21.1953 51.0648C21.1953 53.546 23.1741 55.5574 25.6151 55.5574Z" fill="#F2F2F2"/>
<path d="M91.7459 22.3945H42.8263C41.1677 22.3964 39.5775 23.067 38.4047 24.2591C37.2319 25.4513 36.5722 27.0676 36.5703 28.7535V87.1406C36.5722 88.8265 37.2319 90.4428 38.4047 91.635C39.5775 92.8271 41.1677 93.4977 42.8263 93.4995H91.7459C93.4045 93.4977 94.9947 92.8271 96.1675 91.635C97.3403 90.4428 98 88.8265 98.0019 87.1406V28.7535C98 27.0676 97.3403 25.4513 96.1675 24.2591C94.9947 23.067 93.4045 22.3964 91.7459 22.3945Z" fill="#E6E6E6"/>
<path d="M91.7457 24.2256H42.8262C41.645 24.2269 40.5126 24.7045 39.6774 25.5534C38.8422 26.4023 38.3724 27.5534 38.3711 28.754V87.141C38.3724 88.3416 38.8422 89.4926 39.6774 90.3416C40.5126 91.1905 41.645 91.668 42.8262 91.6694H91.7457C92.9269 91.668 94.0592 91.1905 94.8944 90.3415C95.7296 89.4926 96.1994 88.3416 96.2007 87.141V28.754C96.1994 27.5534 95.7296 26.4024 94.8944 25.5534C94.0593 24.7045 92.9269 24.2269 91.7457 24.2256Z" fill="white"/>
<path d="M84.7686 38.4792H66.5301C66.2538 38.4792 65.9888 38.3676 65.7934 38.1691C65.598 37.9705 65.4883 37.7011 65.4883 37.4203C65.4883 37.1394 65.598 36.8701 65.7934 36.6715C65.9888 36.4729 66.2538 36.3613 66.5301 36.3613H84.7686C84.9055 36.3612 85.0411 36.3884 85.1676 36.4416C85.2942 36.4947 85.4092 36.5727 85.506 36.6711C85.6029 36.7694 85.6797 36.8862 85.7322 37.0148C85.7846 37.1433 85.8116 37.2811 85.8116 37.4203C85.8116 37.5594 85.7846 37.6972 85.7322 37.8258C85.6797 37.9543 85.6029 38.0711 85.506 38.1695C85.4092 38.2678 85.2942 38.3458 85.1676 38.3989C85.0411 38.4521 84.9055 38.4794 84.7686 38.4792Z" fill="#FF6B6B"/>
<path d="M89.066 42.0534H66.5301C66.2538 42.0534 65.9888 41.9419 65.7934 41.7433C65.598 41.5447 65.4883 41.2753 65.4883 40.9945C65.4883 40.7136 65.598 40.4443 65.7934 40.2457C65.9888 40.0471 66.2538 39.9355 66.5301 39.9355H89.066C89.3423 39.9355 89.6073 40.0471 89.8027 40.2457C89.998 40.4443 90.1078 40.7136 90.1078 40.9945C90.1078 41.2753 89.998 41.5447 89.8027 41.7433C89.6073 41.9419 89.3423 42.0534 89.066 42.0534Z" fill="#FF6B6B"/>
<path d="M62.4937 32.0312H45.6788C45.5465 32.0313 45.4195 32.0848 45.3259 32.1799C45.2323 32.275 45.1797 32.4041 45.1797 32.5386V45.8776C45.1797 46.0122 45.2323 46.1412 45.3259 46.2364C45.4195 46.3315 45.5465 46.385 45.6788 46.385H62.4937C62.6261 46.385 62.7531 46.3315 62.8467 46.2364C62.9403 46.1412 62.9929 46.0122 62.9929 45.8776V32.5386C62.9929 32.4041 62.9403 32.275 62.8466 32.1799C62.753 32.0848 62.6261 32.0313 62.4937 32.0312Z" fill="#E6E6E6"/>
<path d="M50.289 40.2217C50.296 41.3478 49.8876 42.4356 49.1446 43.2709C48.4093 44.091 47.3147 44.635 46.2102 44.4099C45.1931 44.2027 44.3665 43.2991 44.4696 42.206C44.4868 41.9692 44.5545 41.7391 44.668 41.5316C44.7816 41.3242 44.9383 41.1444 45.1273 41.0049C45.3162 40.8653 45.5328 40.7693 45.762 40.7235C45.9912 40.6778 46.2274 40.6834 46.4543 40.7399C47.4205 40.9948 47.8054 42.4102 47.0003 43.0746C46.8071 43.234 46.5295 42.9552 46.7245 42.7943C47.2568 42.3551 47.0924 41.3943 46.4499 41.1533C45.702 40.8728 44.9095 41.4762 44.8557 42.2534C44.792 43.175 45.4865 43.869 46.3382 44.0324C47.2596 44.2091 48.1731 43.7298 48.7975 43.0681C49.513 42.2999 49.9078 41.2796 49.8991 40.2217C49.9008 40.1704 49.9221 40.1217 49.9585 40.086C49.9949 40.0502 50.0435 40.0303 50.0941 40.0303C50.1446 40.0303 50.1932 40.0502 50.2296 40.086C50.266 40.1217 50.2873 40.1704 50.289 40.2217Z" fill="#2F2E41"/>
<path d="M54.0979 42.7411C57.9402 42.7411 61.0551 39.575 61.0551 35.6694C61.0551 31.7638 57.9402 28.5977 54.0979 28.5977C50.2555 28.5977 47.1406 31.7638 47.1406 35.6694C47.1406 39.575 50.2555 42.7411 54.0979 42.7411Z" fill="#FF6B6B"/>
<path d="M53.7416 38.6872L53.7344 38.423C54.218 38.4093 54.6445 38.3785 54.9649 38.1405C55.0557 38.0692 55.1304 37.9789 55.1838 37.8756C55.2372 37.7724 55.2681 37.6586 55.2744 37.5422C55.2801 37.471 55.2695 37.3995 55.2435 37.3331C55.2175 37.2668 55.1768 37.2074 55.1246 37.1597C54.9119 36.9771 54.5696 37.0362 54.3202 37.1525L54.1051 37.2527L54.5176 34.1885L54.7752 34.2244L54.4243 36.8309C54.7632 36.7296 55.0773 36.7732 55.2924 36.9579C55.375 37.0312 55.4398 37.1229 55.4818 37.2259C55.5237 37.3288 55.5417 37.4403 55.5342 37.5515C55.5267 37.708 55.4855 37.8609 55.4136 37.9995C55.3418 38.1381 55.2409 38.2591 55.1182 38.3539C54.7065 38.6598 54.1715 38.675 53.7416 38.6872Z" fill="#2F2E41"/>
<path d="M57.451 34.4492H56.0508V34.7135H57.451V34.4492Z" fill="#2F2E41"/>
<path d="M53.0291 34.4492H51.6289V34.7135H53.0291V34.4492Z" fill="#2F2E41"/>
<path d="M50.2461 46.3836C50.7676 46.0473 51.3312 45.7838 51.9217 45.6001C51.8654 45.3965 51.8663 45.1809 51.9243 44.9777C52.0027 44.7211 52.1607 44.4972 52.3746 44.3393C52.5885 44.1814 52.8469 44.098 53.1112 44.1017H54.8063C55.0711 44.0982 55.3299 44.1818 55.5442 44.3399C55.7585 44.4979 55.9169 44.7221 55.9958 44.9791C56.0539 45.1817 56.0547 45.3969 55.9984 45.6001C56.5889 45.784 57.1524 46.0475 57.674 46.3836H50.2461Z" fill="#2F2E41"/>
<path d="M62.0662 33.0458C61.9394 32.8897 61.7834 32.7608 61.6073 32.6665C61.4528 32.5845 61.2811 32.5415 61.1068 32.541C60.8674 32.544 60.635 32.6235 60.4426 32.7683C59.9134 33.1488 59.5469 33.9694 59.5469 34.9194C59.5469 36.1113 60.124 37.0997 60.8741 37.2714C60.9505 37.2888 61.0285 37.2977 61.1068 37.2979C61.9661 37.2979 62.6668 36.2315 62.6668 34.9194C62.6668 34.1584 62.4315 33.4805 62.0662 33.0458Z" fill="#3F3D56"/>
<path d="M47.7764 32.7115H47.7752C47.6014 32.6018 47.4012 32.5428 47.1967 32.541C47.0223 32.5415 46.8507 32.5845 46.6962 32.6665C46.52 32.7608 46.3641 32.8897 46.2373 33.0458L46.236 33.0471C45.872 33.4818 45.6367 34.1597 45.6367 34.9194C45.6367 35.9448 46.0631 36.8195 46.6611 37.1538C46.8248 37.2471 47.009 37.2966 47.1967 37.2979C47.2384 37.2979 47.2801 37.2952 47.3214 37.2899H47.3227C48.1235 37.1922 48.7566 36.1668 48.7566 34.9194C48.7566 33.9205 48.3497 33.0629 47.7764 32.7115Z" fill="#3F3D56"/>
<path d="M46.7623 36.9261C46.7933 36.926 46.8238 36.9185 46.8513 36.9041C46.8789 36.8898 46.9026 36.8689 46.9207 36.8434C46.9387 36.8178 46.9506 36.7883 46.9552 36.7571C46.9598 36.726 46.957 36.6943 46.9471 36.6644C46.5745 35.538 46.4623 34.3393 46.6195 33.1616C46.7767 31.984 47.1989 30.859 47.8534 29.8742C48.5078 28.8893 49.3769 28.0711 50.393 27.4832C51.4091 26.8952 52.5449 26.5534 53.7121 26.4841C54.8793 26.4149 56.0465 26.6202 57.123 27.084C58.1995 27.5479 59.1563 28.2578 59.919 29.1586C60.6816 30.0594 61.2297 31.1268 61.5205 32.2779C61.8114 33.429 61.8372 34.6328 61.5959 35.7957C61.5852 35.8471 61.5951 35.9008 61.6233 35.9448C61.6516 35.9888 61.6959 36.0197 61.7465 36.0305C61.7971 36.0414 61.8499 36.0314 61.8932 36.0027C61.9365 35.974 61.9668 35.9289 61.9775 35.8775C62.2313 34.6549 62.2044 33.3892 61.8987 32.1789C61.593 30.9686 61.0168 29.8462 60.215 28.8991C59.4131 27.9519 58.4072 27.2055 57.2754 26.7178C56.1436 26.2301 54.9164 26.0142 53.6891 26.0871C52.4619 26.1599 51.2677 26.5194 50.1994 27.1376C49.1311 27.7558 48.2174 28.6162 47.5294 29.6517C46.8414 30.6872 46.3977 31.8701 46.2326 33.1083C46.0675 34.3466 46.1855 35.6068 46.5776 36.7912C46.5906 36.8305 46.6155 36.8646 46.6486 36.8888C46.6818 36.913 46.7215 36.926 46.7623 36.9261Z" fill="#3F3D56"/>
<path d="M57.5924 31.0876C57.8679 31.4698 57.7321 31.985 57.4418 32.3145C57.0641 32.7433 56.4618 32.7704 55.9388 32.6908C55.352 32.6015 54.7295 32.322 54.1354 32.5104C53.629 32.6709 53.2678 33.1377 52.7417 33.255C52.2752 33.359 51.7173 33.2213 51.5537 32.7159C51.4751 32.473 51.8516 32.3689 51.9298 32.6105C52.0356 32.9375 52.4925 32.931 52.7541 32.8404C53.1736 32.6952 53.4969 32.3421 53.9092 32.1735C54.3953 31.9746 54.9226 32.0644 55.4175 32.1777C55.884 32.2844 56.4208 32.4427 56.8855 32.2433C57.2294 32.0957 57.503 31.6308 57.2556 31.2877C57.1072 31.0817 57.4454 30.8837 57.5924 31.0876Z" fill="#2F2E41"/>
<path d="M84.741 55.3894H60.0027C59.8659 55.3894 59.7305 55.362 59.6041 55.3088C59.4777 55.2555 59.3628 55.1775 59.2661 55.0792C59.1693 54.9809 59.0926 54.8641 59.0402 54.7357C58.9879 54.6072 58.9609 54.4695 58.9609 54.3304C58.9609 54.1914 58.9879 54.0537 59.0402 53.9252C59.0926 53.7967 59.1693 53.68 59.2661 53.5816C59.3628 53.4833 59.4777 53.4053 59.6041 53.3521C59.7305 53.2989 59.8659 53.2715 60.0027 53.2715H84.741C85.0171 53.2718 85.2818 53.3835 85.4769 53.5821C85.672 53.7806 85.7817 54.0498 85.7817 54.3304C85.7817 54.6111 85.672 54.8802 85.4769 55.0788C85.2818 55.2773 85.0171 55.3891 84.741 55.3894Z" fill="#E6E6E6"/>
<path d="M89.0357 58.9636H60C59.8631 58.9637 59.7275 58.9365 59.601 58.8833C59.4744 58.8302 59.3594 58.7522 59.2626 58.6538C59.1657 58.5555 59.0889 58.4387 59.0364 58.3102C58.984 58.1816 58.957 58.0438 58.957 57.9046C58.957 57.7655 58.984 57.6277 59.0364 57.4991C59.0889 57.3706 59.1657 57.2538 59.2626 57.1554C59.3594 57.0571 59.4744 56.9791 59.601 56.926C59.7275 56.8728 59.8631 56.8455 60 56.8457H89.0357C89.1726 56.8455 89.3082 56.8728 89.4347 56.926C89.5613 56.9791 89.6762 57.0571 89.7731 57.1554C89.87 57.2538 89.9468 57.3706 89.9992 57.4991C90.0517 57.6277 90.0786 57.7655 90.0786 57.9046C90.0786 58.0438 90.0517 58.1816 89.9992 58.3102C89.9468 58.4387 89.87 58.5555 89.7731 58.6538C89.6762 58.7522 89.5613 58.8302 89.4347 58.8833C89.3082 58.9365 89.1726 58.9637 89.0357 58.9636Z" fill="#E6E6E6"/>
<path d="M84.741 68.2351H60.0027C59.7264 68.2351 59.4614 68.1235 59.2661 67.9249C59.0707 67.7263 58.9609 67.457 58.9609 67.1761C58.9609 66.8953 59.0707 66.6259 59.2661 66.4273C59.4614 66.2288 59.7264 66.1172 60.0027 66.1172H84.741C85.0173 66.1172 85.2823 66.2288 85.4777 66.4273C85.673 66.6259 85.7828 66.8953 85.7828 67.1761C85.7828 67.457 85.673 67.7263 85.4777 67.9249C85.2823 68.1235 85.0173 68.2351 84.741 68.2351Z" fill="#E6E6E6"/>
<path d="M89.0384 71.8093H60.0027C59.7264 71.8093 59.4614 71.6977 59.2661 71.4991C59.0707 71.3005 58.9609 71.0312 58.9609 70.7503C58.9609 70.4695 59.0707 70.2002 59.2661 70.0016C59.4614 69.803 59.7264 69.6914 60.0027 69.6914H89.0384C89.3147 69.6914 89.5797 69.803 89.7751 70.0016C89.9704 70.2002 90.0802 70.4695 90.0802 70.7503C90.0802 71.0312 89.9704 71.3005 89.7751 71.4991C89.5797 71.6977 89.3147 71.8093 89.0384 71.8093Z" fill="#E6E6E6"/>
<path d="M50.2089 60.5701C52.6499 60.5701 54.6287 58.5587 54.6287 56.0775C54.6287 53.5964 52.6499 51.585 50.2089 51.585C47.7679 51.585 45.7891 53.5964 45.7891 56.0775C45.7891 58.5587 47.7679 60.5701 50.2089 60.5701Z" fill="#E6E6E6"/>
<path d="M50.2089 73.5193C52.6499 73.5193 54.6287 71.5079 54.6287 69.0268C54.6287 66.5456 52.6499 64.5342 50.2089 64.5342C47.7679 64.5342 45.7891 66.5456 45.7891 69.0268C45.7891 71.5079 47.7679 73.5193 50.2089 73.5193Z" fill="#E6E6E6"/>
<path d="M84.741 81.1843H60.0027C59.7264 81.1843 59.4614 81.0727 59.2661 80.8741C59.0707 80.6755 58.9609 80.4062 58.9609 80.1254C58.9609 79.8445 59.0707 79.5752 59.2661 79.3766C59.4614 79.178 59.7264 79.0664 60.0027 79.0664H84.741C85.0173 79.0664 85.2823 79.178 85.4777 79.3766C85.673 79.5752 85.7828 79.8445 85.7828 80.1254C85.7828 80.4062 85.673 80.6755 85.4777 80.8741C85.2823 81.0727 85.0173 81.1843 84.741 81.1843Z" fill="#E6E6E6"/>
<path d="M89.0384 84.7585H60.0027C59.7264 84.7585 59.4614 84.6469 59.2661 84.4484C59.0707 84.2498 58.9609 83.9804 58.9609 83.6996C58.9609 83.4187 59.0707 83.1494 59.2661 82.9508C59.4614 82.7522 59.7264 82.6406 60.0027 82.6406H89.0384C89.3147 82.6406 89.5797 82.7522 89.7751 82.9508C89.9704 83.1494 90.0802 83.4187 90.0802 83.6996C90.0802 83.9804 89.9704 84.2498 89.7751 84.4484C89.5797 84.6469 89.3147 84.7585 89.0384 84.7585Z" fill="#E6E6E6"/>
<path d="M50.2089 86.4685C52.6499 86.4685 54.6287 84.4572 54.6287 81.976C54.6287 79.4948 52.6499 77.4834 50.2089 77.4834C47.7679 77.4834 45.7891 79.4948 45.7891 81.976C45.7891 84.4572 47.7679 86.4685 50.2089 86.4685Z" fill="#E6E6E6"/>
</g>
<defs>
<clipPath id="clip0_6433_7218">
<rect width="98" height="93" fill="white" transform="translate(0 0.5)"/>
</clipPath>
</defs>
</svg>
