<svg width="260" height="310" viewBox="0 0 260 310" fill="none" xmlns="http://www.w3.org/2000/svg">
<g clip-path="url(#clip0_6339_4734)">
<path d="M100.7 254.436C95.5269 249.098 88.0299 246.037 80.1315 246.037L79.8269 246.038C74.6245 246.04 69.5149 244.659 65.0207 242.037L64.553 241.765L64.9297 241.376C66.9689 239.266 68.6716 236.854 69.9782 234.225C69.0502 235.091 67.9434 235.742 66.7361 236.132C65.5288 236.522 64.2506 236.642 62.9918 236.483C61.6629 236.325 60.387 235.867 59.26 235.145C58.1331 234.423 57.1842 233.455 56.4845 232.313C53.724 227.832 50.4333 221.473 50.4333 216.629C50.4376 212.535 51.2945 208.486 52.9493 204.742C54.6042 200.997 57.0207 197.638 60.0448 194.879C61.9593 193.152 63.4885 191.041 64.5327 188.683C65.5769 186.325 66.1127 183.773 66.105 181.194L66.1035 180.827C66.103 177.431 66.5177 174.048 67.3385 170.753L67.4218 170.421L67.764 170.433C69.9704 170.508 72.1779 170.323 74.3411 169.881C72.3121 169.632 70.3271 169.104 68.4425 168.312L68.0744 168.163L68.1994 167.785C76.8104 162.451 96.2478 165.214 107.53 139.388C116.678 118.447 148.956 157.977 148.956 180.827C148.956 183.158 146.65 186.239 148.376 187.78C167.04 204.439 154.162 215.136 150.102 225.9C149.139 228.453 151.228 231.257 151.228 234.02C151.228 234.489 151.216 234.973 151.192 235.458L151.156 236.205L150.534 235.791C149.303 234.984 148.162 234.047 147.13 232.997C148.2 235.462 148.705 238.134 148.606 240.819C148.508 243.505 147.808 246.133 146.56 248.512C144.605 252.206 142.712 254.85 140.936 256.37C135.247 261.241 127.914 263.754 120.435 263.394C112.956 263.035 105.896 259.83 100.7 254.436Z" fill="#E6E6E6"/>
<path d="M131.946 310C132.074 310 132.196 309.954 132.292 309.87C132.388 309.787 132.451 309.672 132.469 309.546C132.492 309.388 134.691 293.515 132.716 272.419C130.891 252.937 125.032 224.875 107.48 201.828C107.438 201.773 107.385 201.727 107.325 201.692C107.265 201.657 107.199 201.634 107.13 201.624C107.061 201.615 106.991 201.619 106.924 201.637C106.857 201.655 106.794 201.686 106.738 201.728C106.683 201.77 106.637 201.823 106.602 201.883C106.567 201.943 106.544 202.009 106.535 202.078C106.526 202.147 106.53 202.217 106.548 202.284C106.566 202.351 106.597 202.414 106.639 202.47C124.039 225.317 129.851 253.173 131.663 272.518C133.627 293.491 131.445 309.24 131.422 309.397C131.412 309.472 131.417 309.548 131.439 309.621C131.46 309.693 131.497 309.761 131.547 309.818C131.597 309.875 131.658 309.921 131.727 309.952C131.796 309.984 131.871 310 131.946 310Z" fill="#3F3D56"/>
<path d="M117.623 234.337C117.735 234.337 117.843 234.301 117.934 234.236C118.024 234.17 118.091 234.078 118.126 233.971C118.161 233.865 118.161 233.751 118.126 233.644C118.092 233.538 118.024 233.446 117.934 233.38C112.933 229.993 107.53 227.241 101.85 225.188C92.976 221.938 79.4819 218.991 65.5899 223.415C65.5236 223.436 65.4621 223.469 65.4089 223.514C65.3557 223.559 65.3118 223.614 65.2798 223.675C65.2478 223.737 65.2283 223.805 65.2224 223.874C65.2165 223.943 65.2243 224.013 65.2453 224.079C65.2664 224.145 65.3004 224.207 65.3452 224.26C65.3901 224.313 65.445 224.357 65.5068 224.389C65.5685 224.421 65.636 224.44 65.7053 224.446C65.7745 224.452 65.8443 224.444 65.9105 224.422C79.5178 220.09 92.7674 222.988 101.486 226.182C107.075 228.199 112.391 230.905 117.313 234.236C117.403 234.301 117.511 234.337 117.623 234.337Z" fill="#3F3D56"/>
<path d="M141.817 174.049C141.825 173.938 141.797 173.827 141.739 173.732C141.68 173.637 141.592 173.563 141.489 173.521C141.385 173.479 141.271 173.471 141.163 173.497C141.054 173.524 140.957 173.584 140.885 173.67C137.149 178.417 134.016 183.61 131.561 189.13C127.681 197.751 123.772 211.005 127.181 225.186C127.197 225.254 127.227 225.318 127.267 225.374C127.308 225.43 127.36 225.478 127.419 225.514C127.478 225.55 127.544 225.575 127.613 225.586C127.681 225.597 127.751 225.594 127.819 225.578C127.886 225.561 127.95 225.532 128.006 225.491C128.062 225.45 128.11 225.398 128.146 225.339C128.182 225.28 128.207 225.214 128.217 225.145C128.228 225.077 128.225 225.007 128.209 224.939C124.87 211.048 128.713 198.035 132.525 189.565C134.939 184.133 138.019 179.023 141.694 174.352C141.766 174.267 141.809 174.161 141.817 174.049Z" fill="#3F3D56"/>
<path d="M243.778 309.44H201.697L201.516 309.112C200.978 308.135 200.459 307.101 199.973 306.038C195.639 296.754 193.806 286.135 192.19 276.766L190.973 269.704C190.825 268.849 190.936 267.969 191.291 267.177C191.647 266.386 192.23 265.718 192.967 265.26C193.704 264.802 194.56 264.574 195.427 264.606C196.294 264.638 197.132 264.928 197.833 265.439C204.228 270.094 210.626 274.746 217.026 279.393C219.449 281.157 222.217 283.199 224.867 285.405C225.123 284.162 225.391 282.916 225.658 281.687C225.843 280.838 226.276 280.064 226.903 279.464C227.529 278.863 228.321 278.463 229.177 278.315C230.032 278.167 230.912 278.278 231.704 278.633C232.496 278.988 233.164 279.572 233.622 280.309L238.546 288.224C242.137 294.003 245.306 299.698 244.661 305.841C244.664 305.916 244.658 305.991 244.644 306.064C244.515 307.073 244.275 308.065 243.929 309.021L243.778 309.44Z" fill="#F0F0F0"/>
<path d="M224.173 143.921L216.052 113.846C215.704 112.573 214.87 111.488 213.729 110.824C212.588 110.161 211.233 109.973 209.955 110.301C209.294 110.471 208.674 110.773 208.134 111.19C207.594 111.607 207.144 112.13 206.812 112.727C206.48 113.323 206.273 113.981 206.204 114.661C206.134 115.34 206.204 116.026 206.408 116.678L215.802 147.659L220.716 166.725C220.001 167.272 219.47 168.026 219.198 168.885C218.925 169.743 218.924 170.665 219.193 171.525C219.462 172.385 219.99 173.141 220.703 173.69C221.417 174.24 222.283 174.556 223.182 174.596C224.082 174.636 224.972 174.398 225.732 173.915C226.492 173.431 227.085 172.725 227.429 171.893C227.774 171.06 227.855 170.142 227.66 169.262C227.465 168.383 227.004 167.584 226.339 166.976L224.173 143.921Z" fill="#A0616A"/>
<path d="M155.833 137.443L180.509 118.443C181.552 117.635 182.236 116.449 182.413 115.141C182.59 113.833 182.245 112.508 181.454 111.452C181.045 110.906 180.529 110.448 179.937 110.108C179.345 109.768 178.691 109.552 178.013 109.473C177.335 109.394 176.648 109.454 175.994 109.649C175.34 109.845 174.733 110.171 174.209 110.609L149.182 131.131L133.449 142.96C132.67 142.507 131.771 142.305 130.874 142.381C129.976 142.457 129.124 142.808 128.433 143.386C127.742 143.963 127.245 144.74 127.01 145.61C126.776 146.479 126.814 147.401 127.121 148.248C127.427 149.095 127.987 149.827 128.724 150.345C129.461 150.863 130.34 151.141 131.24 151.142C132.141 151.142 133.02 150.866 133.758 150.349C134.496 149.833 135.057 149.102 135.365 148.255L155.833 137.443Z" fill="#A0616A"/>
<path d="M175.945 141.811L174.858 166.115L209.01 158.689C206.103 148.923 204.126 147.257 206.311 140.461L175.945 141.811Z" fill="#A0616A"/>
<path d="M196.945 97.2544H185.565L180.678 105.621L178.349 105.492C177.21 105.43 176.071 105.6 175 105.992C173.929 106.385 172.949 106.992 172.121 107.777C171.292 108.561 170.632 109.506 170.181 110.555C169.73 111.603 169.498 112.732 169.498 113.873L172.367 118.322C172.367 118.322 167.235 127.269 174.627 131.671C174.627 131.671 173.309 139.964 174.627 139.875C175.945 139.785 178.982 138.098 175.945 139.785C172.909 141.473 173.135 141.7 173.528 142.093L173.921 142.486L205.85 147.85C205.85 147.85 206.784 141.657 206.885 140.552C206.985 139.448 206.311 142.148 206.985 139.448C207.66 136.747 208.672 137.76 207.66 136.747C206.648 135.735 214.218 123.189 211.108 118.322L216.095 113.456C216.095 108.788 208.601 105.003 203.935 105.003H203.338L196.945 97.2544Z" fill="#FFF0F0"/>
<path d="M169.527 300.07H164.921L162.729 282.296L169.527 282.296L169.527 300.07Z" fill="#A0616A"/>
<path d="M155.625 306.87C155.627 307.386 155.833 307.88 156.197 308.246C156.562 308.611 157.055 308.818 157.571 308.821H166.242L166.511 308.264L167.737 305.732L168.212 308.264L168.317 308.821H171.587L171.541 308.26L170.669 297.798L169.528 297.727L164.599 297.435L163.388 297.361V300.485C162.469 301.463 155.259 305.16 155.625 306.87Z" fill="#2F2E41"/>
<path d="M237.979 288L234.105 290.493L222.65 276.731L228.368 273.052L237.979 288Z" fill="#A0616A"/>
<path d="M229.964 301.243C230.245 301.676 230.685 301.981 231.189 302.091C231.693 302.201 232.221 302.108 232.656 301.831L239.948 297.138L239.873 296.524L239.535 293.731L241.304 295.603L241.693 296.014L244.444 294.244L244.101 293.798L237.71 285.471L236.713 286.029L232.409 288.452L231.351 289.045L233.04 291.672C232.796 292.992 228.731 300.003 229.964 301.243Z" fill="#2F2E41"/>
<path d="M259.464 309.765L116.844 309.904C116.702 309.903 116.565 309.846 116.465 309.745C116.364 309.644 116.308 309.508 116.308 309.365C116.308 309.223 116.364 309.086 116.465 308.985C116.565 308.884 116.702 308.827 116.844 308.827L259.464 308.688C259.607 308.688 259.743 308.745 259.843 308.846C259.944 308.947 260 309.084 260 309.226C260 309.369 259.944 309.505 259.843 309.606C259.743 309.707 259.607 309.764 259.464 309.765Z" fill="#CACACA"/>
<path d="M208.475 155.943C208.475 155.943 186.644 167.497 175.097 159.614C175.097 159.614 172.571 171.854 171.559 172.866C170.547 173.879 168.934 174.32 170.078 175.45C171.222 176.579 171.858 178.105 169.685 180.043C167.511 181.98 165.343 181.366 167.439 183.361C169.535 185.356 161.1 234.302 161.1 234.302C161.1 234.302 162.45 279.82 161.1 281.196C159.75 282.573 157.947 282.881 159.692 284.584C161.437 286.286 161.437 284.966 161.437 287.314V289.662L162.236 291.995H173.191C173.191 291.995 175.835 288.923 173.191 286.254C170.547 283.586 173.995 282.855 174.802 280.351C175.608 277.847 176.958 280.548 175.608 277.847C174.258 275.147 173.61 275.661 173.597 273.885C173.584 272.109 193.49 202.572 193.49 202.572L195.901 241.059L224.901 283.21L233.437 276.805C233.437 276.805 227.223 268.052 228.676 266.848C230.129 265.645 224.392 264.136 226.201 262.778C228.01 261.421 223.656 260.053 225.297 258.253C226.938 256.454 223.036 251.919 220.774 251.919C218.513 251.919 215.34 244.359 215.34 244.359L220.077 184.636L208.475 155.943Z" fill="#2F2E41"/>
<path d="M185.336 72.688C185.182 72.8909 183.951 72.7816 182.471 72.5654C179.544 72.1378 179.145 72.6459 176.958 74.6369C173.788 77.5211 175.59 95.1126 174.033 98.9242L173.53 99.2952C174.528 99.1045 175.508 98.8301 176.46 98.4748C176.997 96.7774 177.537 95.0744 178.079 93.3784C178.592 94.698 178.914 96.0839 179.036 97.4943C179.79 97.1972 180.539 96.4706 183.686 95.496C185.271 94.4202 196.739 93.3384 198.213 92.8651C201.955 80.1286 195.925 74.9779 185.336 72.688Z" fill="#2F2E41"/>
<path d="M189.208 92.3279C195.26 92.3279 200.167 87.4191 200.167 81.3639C200.167 75.3086 195.26 70.3999 189.208 70.3999C183.156 70.3999 178.25 75.3086 178.25 81.3639C178.25 87.4191 183.156 92.3279 189.208 92.3279Z" fill="#A0616A"/>
<path d="M196.107 71.7214C195.49 71.6303 194.895 71.4217 194.356 71.1071C194.089 70.9456 193.872 70.7121 193.731 70.4333C193.59 70.1545 193.53 69.8417 193.559 69.5305C193.694 68.7515 194.574 68.2863 195.363 68.3337C196.148 68.447 196.894 68.7491 197.537 69.2142C197.467 68.4613 197.145 67.7541 196.625 67.206C196.104 66.658 195.414 66.3009 194.666 66.1922C195.704 66.1362 196.782 66.0869 197.742 66.4861C198.701 66.8854 199.5 67.8739 199.327 68.8989C200.94 68.691 202.531 69.8154 203.197 71.2997C203.863 72.7841 203.731 74.5273 203.199 76.0648C203.146 76.3002 203.044 76.5217 202.898 76.714C202.753 76.9064 202.568 77.0652 202.355 77.1798C201.813 77.3859 201.229 77.0403 200.758 76.6996C198.301 74.9199 196.065 72.8536 194.097 70.5445" fill="#2F2E41"/>
<path d="M200.885 93.0202C200.421 93.239 200.663 94.0531 200.302 94.4177C200.145 94.5721 199.956 94.6897 199.748 94.762C199.694 94.0825 199.536 93.4154 199.279 92.7839C199.232 92.6691 199.155 92.5409 199.033 92.551C198.891 92.5679 198.854 92.7535 198.851 92.8919C198.822 93.5785 198.67 94.2543 198.402 94.8869C198.399 94.8937 198.395 94.9038 198.392 94.9105C198.287 94.9072 198.18 94.9038 198.078 94.9004C197.296 94.87 195.561 92.8582 195.177 93.54C196.533 91.1333 198.186 87.5146 198.439 84.7635C198.527 84.1875 198.484 83.5992 198.314 83.0419C198.226 82.7647 198.059 82.5187 197.835 82.3333C197.611 82.1478 197.338 82.0306 197.049 81.9955C196.907 81.989 196.765 82.0141 196.633 82.069C196.501 82.1239 196.383 82.2072 196.288 82.313C196.192 82.4188 196.121 82.5444 196.079 82.681C196.038 82.8175 196.027 82.9615 196.047 83.1027L195.852 83.0757C194.036 81.5972 195.602 79.0284 193.49 78.0124C192.775 77.668 188.395 78.8191 187.623 78.6166C187.606 77.8023 187.44 76.9979 187.133 76.2435C187.086 76.1288 187.008 76.0005 186.887 76.0106C186.745 76.0275 186.708 76.2131 186.705 76.3515C186.676 77.0381 186.524 77.7139 186.256 78.3465C185.186 78.1946 184.096 78.2519 183.047 78.5153C182.123 78.7583 181.246 79.1769 180.318 79.3997C179.859 79.5403 179.377 79.5859 178.9 79.5337C178.423 79.4814 177.962 79.3325 177.545 79.0959C176.367 78.306 176.161 76.5575 176.748 75.268C177.173 74.4405 177.747 73.6989 178.442 73.0806C178.972 72.5675 179.522 72.0746 180.072 71.5818C180.564 71.1396 181.057 70.6974 181.549 70.2552C182.17 69.6713 182.83 69.1321 183.527 68.6417C184.638 67.9126 185.887 67.4185 187.197 67.1898C188.506 66.9611 189.849 67.0026 191.141 67.3117C192.694 67.683 194.768 67.1598 196.189 67.8855C196.931 68.267 198.574 69.7286 199.225 70.2485C200.892 71.5751 199.764 70.4941 201.587 71.2611C205.934 73.0901 204.012 91.5476 200.885 93.0202Z" fill="#2F2E41"/>
<path d="M79.5491 173.045C117.083 173.045 147.51 142.603 147.51 105.051C147.51 67.4987 117.083 37.0566 79.5491 37.0566C42.0154 37.0566 11.5884 67.4987 11.5884 105.051C11.5884 142.603 42.0154 173.045 79.5491 173.045Z" fill="white"/>
<path d="M79.5492 173.724C41.7016 173.724 10.9102 142.917 10.9102 105.051C10.9102 67.1846 41.7016 36.3779 79.5492 36.3779C117.397 36.3779 148.188 67.1846 148.188 105.051C148.188 142.917 117.397 173.724 79.5492 173.724ZM79.5492 37.7353C42.4497 37.7353 12.2669 67.9331 12.2669 105.051C12.2669 142.169 42.4497 172.366 79.5492 172.366C116.649 172.366 146.832 142.169 146.832 105.051C146.832 67.9331 116.649 37.7353 79.5492 37.7353Z" fill="#FF6B6B"/>
<path d="M70.2781 140.439C69.1045 140.439 67.9471 140.165 66.8974 139.64C65.8478 139.115 64.9349 138.352 64.231 137.413L45.6902 112.679C45.0946 111.884 44.6613 110.98 44.4149 110.018C44.1686 109.056 44.1141 108.055 44.2545 107.071C44.3949 106.088 44.7275 105.142 45.2333 104.288C45.7392 103.433 46.4083 102.686 47.2025 102.091C47.9967 101.495 48.9004 101.061 49.8621 100.815C50.8238 100.568 51.8246 100.514 52.8073 100.654C53.7901 100.795 54.7355 101.127 55.5897 101.633C56.4439 102.14 57.1901 102.809 57.7858 103.604L69.9157 119.784L101.07 73.0297C102.183 71.362 103.912 70.2046 105.877 69.812C107.843 69.4193 109.883 69.8236 111.551 70.9359C113.219 72.0481 114.377 73.7774 114.77 75.7435C115.164 77.7096 114.761 79.7517 113.65 81.4208L76.5689 137.07C75.8981 138.077 74.9959 138.908 73.9379 139.493C72.88 140.079 71.6971 140.402 70.4885 140.436C70.4184 140.437 70.3482 140.439 70.2781 140.439Z" fill="#FF6B6B"/>
<path d="M149.569 41.3046C149.758 40.0047 148.397 38.7305 146.529 38.4586C144.661 38.1867 142.994 39.0201 142.805 40.32C142.616 41.62 143.977 42.8942 145.845 43.1661C147.712 43.438 149.38 42.6046 149.569 41.3046Z" fill="#E6E6E6"/>
<path d="M171.806 39.1338C171.995 37.8338 170.634 36.5596 168.767 36.2877C166.899 36.0158 165.232 36.8492 165.042 38.1492C164.853 39.4491 166.214 40.7233 168.082 40.9952C169.95 41.2671 171.617 40.4337 171.806 39.1338Z" fill="#3F3D56"/>
<path d="M143.479 23.2929C143.668 21.9929 142.307 20.7187 140.44 20.4468C138.572 20.175 136.904 21.0084 136.715 22.3083C136.526 23.6083 137.887 24.8825 139.755 25.1544C141.623 25.4263 143.29 24.5929 143.479 23.2929Z" fill="#FF6584"/>
<path d="M133.816 15.9146C133.825 14.7212 133.16 13.7486 132.33 13.7424C131.501 13.7361 130.821 14.6985 130.811 15.8919C130.802 17.0853 131.468 18.0578 132.298 18.0641C133.127 18.0704 133.807 17.108 133.816 15.9146Z" fill="#E6E6E6"/>
<path d="M130.54 2.17241C130.549 0.979001 129.883 0.00645638 129.053 0.000178593C128.224 -0.00609919 127.544 0.956267 127.535 2.14968C127.526 3.34309 128.191 4.31564 129.021 4.32191C129.851 4.32819 130.531 3.36583 130.54 2.17241Z" fill="#3F3D56"/>
<path d="M156.022 26.358C156.031 25.1645 155.365 24.192 154.535 24.1857C153.706 24.1794 153.026 25.1418 153.017 26.3352C153.008 27.5286 153.673 28.5012 154.503 28.5075C155.333 28.5137 156.012 27.5514 156.022 26.358Z" fill="#E6E6E6"/>
<path d="M145.275 31.7262C145.284 30.5327 144.619 29.5602 143.789 29.5539C142.959 29.5476 142.28 30.51 142.27 31.7034C142.261 32.8968 142.927 33.8693 143.757 33.8756C144.586 33.8819 145.266 32.9196 145.275 31.7262Z" fill="#FF6584"/>
<path d="M160.235 41.6475C160.244 40.4541 159.578 39.4816 158.749 39.4753C157.919 39.469 157.239 40.4314 157.23 41.6248C157.221 42.8182 157.886 43.7907 158.716 43.797C159.546 43.8033 160.226 42.841 160.235 41.6475Z" fill="#3F3D56"/>
<path d="M22.0341 202.385C22.2231 201.085 20.8622 199.811 18.9945 199.539C17.1267 199.267 15.4593 200.101 15.2703 201.401C15.0812 202.701 16.4421 203.975 18.3099 204.247C20.1776 204.519 21.845 203.685 22.0341 202.385Z" fill="#E6E6E6"/>
<path d="M44.2721 200.214C44.4611 198.914 43.1003 197.64 41.2325 197.368C39.3647 197.096 37.6974 197.93 37.5083 199.23C37.3193 200.53 38.6801 201.804 40.5479 202.076C42.4157 202.348 44.083 201.514 44.2721 200.214Z" fill="#3F3D56"/>
<path d="M15.9447 184.373C16.1337 183.073 14.7729 181.799 12.9051 181.527C11.0373 181.255 9.36997 182.088 9.18092 183.388C8.99188 184.688 10.3528 185.963 12.2205 186.234C14.0883 186.506 15.7557 185.673 15.9447 184.373Z" fill="#FF6584"/>
<path d="M6.28202 176.995C6.29104 175.802 5.62567 174.829 4.79588 174.823C3.9661 174.817 3.28609 175.779 3.27707 176.972C3.26805 178.166 3.93343 179.138 4.76322 179.145C5.59301 179.151 6.273 178.189 6.28202 176.995Z" fill="#E6E6E6"/>
<path d="M3.00515 163.252C3.01417 162.059 2.34881 161.087 1.51902 161.08C0.689226 161.074 0.00923854 162.036 0.000218668 163.23C-0.0088012 164.423 0.656562 165.396 1.48635 165.402C2.31614 165.408 2.99613 164.446 3.00515 163.252Z" fill="#3F3D56"/>
<path d="M28.4871 187.438C28.4961 186.245 27.8307 185.272 27.0009 185.266C26.1711 185.26 25.4912 186.222 25.4822 187.415C25.4731 188.609 26.1385 189.581 26.9683 189.588C27.7981 189.594 28.4781 188.631 28.4871 187.438Z" fill="#E6E6E6"/>
<path d="M17.7408 192.806C17.7498 191.613 17.0844 190.64 16.2546 190.634C15.4248 190.628 14.7448 191.59 14.7358 192.783C14.7268 193.977 15.3922 194.949 16.222 194.956C17.0518 194.962 17.7318 194 17.7408 192.806Z" fill="#FF6584"/>
<path d="M32.7 202.728C32.709 201.535 32.0436 200.562 31.2138 200.556C30.384 200.55 29.7041 201.512 29.695 202.705C29.686 203.899 30.3514 204.871 31.1812 204.878C32.011 204.884 32.691 203.921 32.7 202.728Z" fill="#3F3D56"/>
</g>
<defs>
<clipPath id="clip0_6339_4734">
<rect width="260" height="310" fill="white"/>
</clipPath>
</defs>
</svg>
