<svg width="254" height="287" viewBox="0 0 254 287" fill="none" xmlns="http://www.w3.org/2000/svg">
<g clip-path="url(#clip0_6339_3436)">
<path d="M121.892 269.241L121.569 262.041C121.535 262.023 121.501 262.005 121.468 261.988C117.999 260.187 114.024 263.447 115.131 267.164C116.174 270.661 116.874 274.431 118.782 277.492C119.91 279.27 121.427 280.774 123.222 281.893C125.017 283.012 127.043 283.717 129.151 283.956L133.558 286.625C134.163 283.29 134.03 279.865 133.167 276.586C132.305 273.307 130.735 270.252 128.564 267.631C127.332 266.173 125.918 264.874 124.358 263.765C123.302 266.518 121.892 269.241 121.892 269.241Z" fill="#F2F2F2"/>
<path d="M82.4372 196.169C73.9528 187.513 61.6578 182.549 48.7046 182.549L48.205 182.55C39.6731 182.553 31.2934 180.314 23.923 176.063L23.156 175.621L23.7738 174.991C27.118 171.568 29.9105 167.657 32.0533 163.395C30.5314 164.798 28.7163 165.854 26.7363 166.487C24.7564 167.12 22.66 167.314 20.5957 167.056C18.4162 166.799 16.3239 166.058 14.4757 164.886C12.6274 163.715 11.0712 162.145 9.92382 160.294C5.39657 153.028 0 142.717 0 134.862C0.00704738 128.222 1.4123 121.657 4.1262 115.585C6.84009 109.512 10.8031 104.066 15.7626 99.5927C18.9024 96.792 21.4103 93.3681 23.1227 89.5443C24.8352 85.7205 25.7138 81.5825 25.7013 77.4003L25.6988 76.8051C25.698 71.2988 26.3781 65.8132 27.7242 60.4704L27.8608 59.9308L28.422 59.9502C32.0405 60.072 35.6609 59.772 39.2084 59.0563C35.8808 58.6525 32.6255 57.796 29.5348 56.511L28.9312 56.2694L29.136 55.6575C43.2579 47.0076 75.1351 51.487 93.6375 9.60894C108.641 -24.3484 161.576 39.7529 161.576 76.8051C161.576 80.5858 157.794 85.582 160.625 88.0808C191.232 115.094 170.114 132.44 163.456 149.894C161.876 154.036 165.301 158.582 165.301 163.062C165.301 163.822 165.282 164.607 165.243 165.395L165.184 166.605L164.163 165.933C162.145 164.625 160.273 163.106 158.581 161.404C160.336 165.4 161.164 169.734 161.002 174.088C160.84 178.442 159.694 182.705 157.647 186.562C154.439 192.551 151.336 196.839 148.424 199.305C139.094 207.204 127.067 211.278 114.801 210.695C102.536 210.112 90.9586 204.916 82.4372 196.169Z" fill="#FFF0F0"/>
<path d="M133.68 286.27C133.889 286.27 134.09 286.195 134.248 286.06C134.405 285.924 134.508 285.737 134.537 285.533C134.574 285.277 138.182 259.538 134.942 225.329C131.95 193.737 122.34 148.233 93.5552 110.861C93.4863 110.771 93.4001 110.696 93.3017 110.639C93.2033 110.582 93.0945 110.545 92.9816 110.53C92.8687 110.515 92.7539 110.522 92.6437 110.551C92.5335 110.58 92.4302 110.63 92.3395 110.698C92.2489 110.766 92.1728 110.852 92.1155 110.949C92.0582 111.046 92.021 111.154 92.0058 111.266C91.9906 111.378 91.9978 111.491 92.0271 111.6C92.0563 111.709 92.1069 111.811 92.1761 111.901C120.713 148.95 130.244 194.12 133.216 225.489C136.437 259.499 132.857 285.037 132.821 285.291C132.803 285.413 132.813 285.537 132.848 285.655C132.883 285.773 132.944 285.882 133.025 285.975C133.106 286.067 133.207 286.142 133.32 286.193C133.433 286.244 133.556 286.27 133.68 286.27Z" fill="#3F3D56"/>
<path d="M110.19 163.576C110.373 163.576 110.551 163.519 110.7 163.413C110.848 163.306 110.958 163.156 111.015 162.984C111.072 162.812 111.072 162.626 111.015 162.454C110.959 162.281 110.848 162.131 110.7 162.025C110.596 161.95 100.065 154.444 84.3223 148.741C69.7692 143.47 47.6389 138.692 24.8563 145.865C24.7476 145.899 24.6468 145.954 24.5597 146.027C24.4725 146.099 24.4006 146.188 24.3482 146.288C24.2957 146.388 24.2638 146.498 24.2541 146.61C24.2444 146.722 24.2572 146.835 24.2918 146.943C24.3263 147.05 24.382 147.15 24.4555 147.236C24.529 147.322 24.619 147.393 24.7202 147.445C24.8215 147.496 24.9321 147.528 25.0456 147.537C25.1592 147.547 25.2735 147.534 25.382 147.499C47.6979 140.474 69.427 145.173 83.7261 150.352C99.2443 155.973 109.578 163.339 109.681 163.412C109.829 163.519 110.007 163.576 110.19 163.576Z" fill="#3F3D56"/>
<path d="M149.867 65.8151C149.88 65.6344 149.835 65.4542 149.739 65.3003C149.642 65.1464 149.499 65.0267 149.329 64.9583C149.16 64.89 148.973 64.8766 148.795 64.92C148.617 64.9633 148.458 65.0613 148.34 65.1998C148.256 65.2975 139.93 75.1473 133.047 90.2701C126.685 104.25 120.273 125.742 125.865 148.738C125.919 148.959 126.059 149.15 126.255 149.269C126.451 149.387 126.687 149.424 126.91 149.371C127.134 149.318 127.327 149.179 127.447 148.985C127.567 148.791 127.604 148.558 127.55 148.337C122.074 125.812 128.377 104.71 134.628 90.9743C141.413 76.0673 149.583 66.4014 149.665 66.3054C149.783 66.1673 149.854 65.9956 149.867 65.8151Z" fill="#3F3D56"/>
<path d="M148.694 110.037C149.426 115.875 153.515 120.688 159.461 120.688C162.317 120.688 165.055 119.566 167.075 117.568C169.094 115.571 170.228 112.862 170.228 110.037C170.228 104.154 165.382 99.9291 159.461 99.3853C153.179 98.8082 147.755 102.542 148.694 110.037Z" fill="#2F2E41"/>
<path d="M164.448 281.579L168.548 281.578L170.499 265.933L164.447 265.934L164.448 281.579Z" fill="#FFB6B6"/>
<path d="M164.304 285.81L176.913 285.809V285.652C176.912 284.364 176.395 283.129 175.475 282.219C174.555 281.308 173.306 280.797 172.005 280.797L169.701 279.068L165.404 280.797L164.304 280.797L164.304 285.81Z" fill="#2F2E41"/>
<path d="M148.298 281.579L152.398 281.578L154.348 265.933L148.297 265.934L148.298 281.579Z" fill="#FFB6B6"/>
<path d="M148.154 285.81L160.762 285.809V285.652C160.762 284.364 160.245 283.129 159.325 282.219C158.404 281.308 157.156 280.797 155.855 280.797L153.551 279.068L149.254 280.797L148.153 280.797L148.154 285.81Z" fill="#2F2E41"/>
<path d="M178.558 183.589L181.457 193.421L178.042 235.062C178.042 235.062 179.8 237.666 178.558 237.666C177.316 237.666 175.723 238.243 176.726 239.798C177.73 241.353 174.299 246.935 174.299 246.935L169.447 276.585L163.265 276.494C163.265 276.494 160.122 274.762 161.886 273.01C163.65 271.259 164.892 271.259 163.236 269.62C161.579 267.981 161.579 268.475 161.579 267.204C161.579 265.933 159.92 250.401 163.855 244.443L162.669 220.151L159.876 243.979L154.125 275.765L148.169 275.717C148.169 275.717 145.418 273.094 145.423 271.152C145.429 269.21 147.123 269.049 145.862 267.901C144.6 266.752 144.6 249.111 148.327 239.304C148.327 239.304 150.436 233.825 148.323 231.948C146.21 230.071 148.32 227.922 148.32 227.922C148.32 227.922 151.667 226.726 148.317 223.277C144.967 219.829 148.299 195.44 148.299 195.44C148.299 195.44 144.637 185.596 148.346 181.725C152.054 177.854 178.558 183.589 178.558 183.589Z" fill="#2F2E41"/>
<path d="M126.928 200.528L132.1 188.164L136.175 190.403L133.714 202.981C133.96 203.778 133.977 204.627 133.763 205.433C133.548 206.239 133.11 206.97 132.499 207.543C131.888 208.116 131.127 208.509 130.302 208.678C129.477 208.847 128.621 208.785 127.83 208.499C127.038 208.213 126.344 207.715 125.823 207.06C125.303 206.404 124.977 205.618 124.884 204.79C124.79 203.962 124.932 203.124 125.293 202.372C125.654 201.619 126.22 200.98 126.928 200.528Z" fill="#FFB6B6"/>
<path d="M213.716 102.752L205.847 113.636L202.391 110.541L207.668 98.8418C207.611 98.0104 207.789 97.1796 208.182 96.4428C208.576 95.706 209.17 95.0924 209.896 94.671C210.623 94.2497 211.454 94.0372 212.296 94.0575C213.139 94.0778 213.958 94.3301 214.663 94.786C215.369 95.2419 215.931 95.8833 216.288 96.6382C216.645 97.3931 216.782 98.2315 216.683 99.0591C216.585 99.8868 216.255 100.671 215.731 101.323C215.207 101.976 214.509 102.47 213.716 102.752Z" fill="#FFB6B6"/>
<path d="M179.339 184.597C184.443 192.429 158.786 202.369 148.941 198.378C147.217 197.68 141.287 195.372 145.341 192.172C149.394 188.972 144.871 188.522 144.764 186.439C144.692 185.047 145.782 181.992 144.645 182.123C143.508 182.254 142.177 180.328 144.653 179.499C147.13 178.67 144.68 177.915 144.702 177.128C144.939 168.543 151.597 154.888 151.597 154.888L139.599 185.227C139.599 185.227 139.688 190.476 138.158 188.872C136.628 187.268 136.739 192.459 136.739 192.459C136.739 192.459 134.464 194.03 135.773 194.904C137.081 195.778 134.364 198.466 134.364 198.466L128.025 198.018C128.025 198.018 128.125 193.36 129.207 192.329C130.289 191.299 129.758 189.678 129.758 189.678C129.758 189.678 132.575 187.211 130.686 185.207C128.257 182.63 137.115 139.107 140.172 139.538C140.604 137.457 141.61 135.535 143.077 133.984C144.545 132.433 146.417 131.314 148.488 130.75L155.334 128.885L156.55 124.113H166.19L167.869 127.249L175.198 130.52C176.578 128.594 177.61 126.563 183.263 125.905C183.263 125.905 198.495 112.194 197.752 111.124C197.008 110.053 199.369 107.547 199.369 107.547C199.369 107.547 201.386 106.894 200.248 106.545C199.11 106.197 201.261 105.391 201.261 105.391C201.261 105.391 203.253 104.873 202.313 104.191C201.374 103.509 205.449 103.062 205.449 103.062L210.736 107.329L209.667 109.121C209.667 109.121 210.319 111.562 209.468 110.671C208.618 109.78 208.458 112.366 208.458 112.366C208.458 112.366 208.024 115.198 205.449 116.051C202.874 116.904 200.921 125.009 200.921 125.009C194.848 132.82 187.681 138.914 179.188 142.925C182.498 146.684 179.339 184.597 179.339 184.597Z" fill="#FF6B6B"/>
<path d="M160.651 121.321C165.924 121.321 170.199 117.092 170.199 111.875C170.199 106.659 165.924 102.43 160.651 102.43C155.378 102.43 151.104 106.659 151.104 111.875C151.104 117.092 155.378 121.321 160.651 121.321Z" fill="#FFB6B6"/>
<path d="M150.765 112.904C151.067 114.957 152.835 117.82 152.421 117.82C152.007 117.82 149.063 109.359 152.007 108.808C154.143 108.407 154.62 108.758 156.616 107.902L156.334 108.164C157.655 109.115 159.494 108.529 161.002 107.91C162.513 107.296 164.348 106.71 165.673 107.656C166.505 108.25 166.857 109.283 167.375 110.16C167.892 111.04 168.849 111.872 169.835 111.602C170.626 111.384 171.081 110.508 171.077 109.697C171.073 108.885 170.005 108.114 170.365 107.386C171.43 105.229 170.472 103.759 168.149 102.744C167.304 102.617 166.46 102.488 165.615 102.355C166.057 101.749 166.594 101.215 167.205 100.774C166.947 100.119 166.501 99.5539 165.921 99.1476C165.246 98.7502 164.41 98.7788 163.627 98.8198C161.879 98.9099 160.133 99.0001 158.388 99.0902C157.096 99.1557 155.759 99.2336 154.603 99.8194C153.162 100.553 152.218 101.982 151.531 103.437C149.99 106.706 150.234 109.336 150.765 112.904Z" fill="#2F2E41"/>
<path d="M111.047 286.874L204.948 287C205.079 287 205.204 286.949 205.297 286.857C205.389 286.766 205.441 286.641 205.441 286.512C205.441 286.383 205.389 286.259 205.297 286.167C205.204 286.076 205.079 286.024 204.948 286.024L111.047 285.898C110.916 285.898 110.791 285.95 110.698 286.041C110.606 286.133 110.554 286.257 110.554 286.386C110.554 286.516 110.606 286.64 110.698 286.731C110.791 286.823 110.916 286.874 111.047 286.874Z" fill="#CACACA"/>
<path d="M77.085 244.354C77.2582 243.177 76.012 242.023 74.3018 241.777C72.5915 241.531 71.0647 242.286 70.8916 243.463C70.7185 244.64 71.9646 245.793 73.6749 246.039C75.3852 246.286 76.9119 245.531 77.085 244.354Z" fill="#E6E6E6"/>
<path d="M97.4473 242.388C97.6205 241.211 96.3743 240.058 94.664 239.811C92.9537 239.565 91.427 240.32 91.2539 241.497C91.0808 242.674 92.3269 243.827 94.0372 244.074C95.7474 244.32 97.2742 243.565 97.4473 242.388Z" fill="#3F3D56"/>
<path d="M71.5088 228.045C71.682 226.868 70.4358 225.715 68.7256 225.469C67.0153 225.222 65.4885 225.977 65.3154 227.154C65.1423 228.331 66.3884 229.485 68.0987 229.731C69.809 229.977 71.3357 229.222 71.5088 228.045Z" fill="#FF6584"/>
<path d="M62.6611 221.365C62.6693 220.285 62.0601 219.404 61.3002 219.399C60.5404 219.393 59.9177 220.264 59.9095 221.345C59.9012 222.425 60.5105 223.306 61.2703 223.312C62.0301 223.317 62.6528 222.446 62.6611 221.365Z" fill="#E6E6E6"/>
<path d="M59.6601 208.923C59.6683 207.842 59.0591 206.962 58.2993 206.956C57.5394 206.951 56.9168 207.822 56.9085 208.902C56.9003 209.983 57.5095 210.863 58.2693 210.869C59.0292 210.875 59.6518 210.004 59.6601 208.923Z" fill="#3F3D56"/>
<path d="M82.9941 230.821C83.0023 229.74 82.3931 228.86 81.6332 228.854C80.8734 228.849 80.2508 229.72 80.2425 230.8C80.2342 231.881 80.8435 232.761 81.6033 232.767C82.3632 232.773 82.9858 231.901 82.9941 230.821Z" fill="#E6E6E6"/>
<path d="M73.1532 235.681C73.1615 234.601 72.5522 233.72 71.7924 233.715C71.0326 233.709 70.4099 234.58 70.4017 235.661C70.3934 236.741 71.0027 237.622 71.7625 237.627C72.5223 237.633 73.145 236.762 73.1532 235.681Z" fill="#FF6584"/>
<path d="M86.8515 244.664C86.8597 243.584 86.2505 242.703 85.4907 242.697C84.7308 242.692 84.1082 243.563 84.0999 244.644C84.0917 245.724 84.7009 246.605 85.4608 246.61C86.2206 246.616 86.8432 245.745 86.8515 244.664Z" fill="#3F3D56"/>
<path d="M233.621 181.264C233.794 180.087 232.548 178.934 230.838 178.687C229.128 178.441 227.601 179.196 227.428 180.373C227.255 181.55 228.501 182.703 230.211 182.95C231.921 183.196 233.448 182.441 233.621 181.264Z" fill="#E6E6E6"/>
<path d="M253.984 179.299C254.157 178.122 252.911 176.968 251.201 176.722C249.49 176.476 247.964 177.23 247.79 178.407C247.617 179.584 248.863 180.738 250.574 180.984C252.284 181.23 253.811 180.476 253.984 179.299Z" fill="#3F3D56"/>
<path d="M228.045 164.956C228.218 163.779 226.972 162.625 225.262 162.379C223.551 162.133 222.025 162.888 221.852 164.065C221.678 165.242 222.925 166.395 224.635 166.642C226.345 166.888 227.872 166.133 228.045 164.956Z" fill="#FF6584"/>
<path d="M219.197 158.276C219.205 157.196 218.596 156.315 217.836 156.309C217.077 156.304 216.454 157.175 216.446 158.255C216.437 159.336 217.047 160.217 217.806 160.222C218.566 160.228 219.189 159.357 219.197 158.276Z" fill="#E6E6E6"/>
<path d="M216.197 145.834C216.205 144.753 215.596 143.873 214.836 143.867C214.076 143.861 213.453 144.733 213.445 145.813C213.437 146.894 214.046 147.774 214.806 147.78C215.566 147.786 216.188 146.914 216.197 145.834Z" fill="#3F3D56"/>
<path d="M239.53 167.732C239.538 166.651 238.929 165.771 238.169 165.765C237.41 165.759 236.787 166.63 236.779 167.711C236.77 168.792 237.38 169.672 238.139 169.678C238.899 169.683 239.522 168.812 239.53 167.732Z" fill="#E6E6E6"/>
<path d="M229.69 172.592C229.698 171.511 229.089 170.631 228.329 170.625C227.569 170.62 226.947 171.491 226.938 172.571C226.93 173.652 227.539 174.532 228.299 174.538C229.059 174.544 229.682 173.672 229.69 172.592Z" fill="#FF6584"/>
<path d="M243.388 181.575C243.396 180.494 242.787 179.614 242.027 179.608C241.267 179.602 240.644 180.474 240.636 181.554C240.628 182.635 241.237 183.515 241.997 183.521C242.757 183.527 243.379 182.655 243.388 181.575Z" fill="#3F3D56"/>
<path d="M157.838 64.5079C158.011 63.3309 156.765 62.1772 155.055 61.931C153.344 61.6849 151.818 62.4394 151.644 63.6164C151.471 64.7934 152.718 65.9471 154.428 66.1933C156.138 66.4395 157.665 65.6849 157.838 64.5079Z" fill="white"/>
<path d="M178.2 62.5426C178.373 61.3656 177.127 60.2119 175.417 59.9657C173.707 59.7196 172.18 60.4741 172.007 61.6511C171.834 62.8281 173.08 63.9818 174.79 64.228C176.5 64.4741 178.027 63.7196 178.2 62.5426Z" fill="#3F3D56"/>
<path d="M152.262 48.1998C152.435 47.0228 151.189 45.8691 149.478 45.6229C147.768 45.3768 146.241 46.1313 146.068 47.3083C145.895 48.4853 147.141 49.639 148.852 49.8852C150.562 50.1313 152.089 49.3768 152.262 48.1998Z" fill="#FF6584"/>
<path d="M143.414 41.5197C143.422 40.4392 142.813 39.5586 142.053 39.5529C141.293 39.5473 140.671 40.4186 140.662 41.4991C140.654 42.5796 141.263 43.4602 142.023 43.4659C142.783 43.4715 143.406 42.6002 143.414 41.5197Z" fill="#E6E6E6"/>
<path d="M140.413 29.0773C140.421 27.9968 139.812 27.1162 139.052 27.1106C138.292 27.1049 137.67 27.9762 137.661 29.0567C137.653 30.1372 138.262 31.0178 139.022 31.0235C139.782 31.0292 140.405 30.1578 140.413 29.0773Z" fill="#3F3D56"/>
<path d="M163.747 50.9748C163.755 49.8942 163.145 49.0137 162.386 49.008C161.626 49.0023 161.003 49.8737 160.995 50.9542C160.987 52.0347 161.596 52.9153 162.356 52.9209C163.116 52.9266 163.738 52.0553 163.747 50.9748Z" fill="#E6E6E6"/>
<path d="M153.906 55.8351C153.914 54.7546 153.305 53.8741 152.545 53.8684C151.786 53.8627 151.163 54.734 151.155 55.8145C151.146 56.8951 151.756 57.7756 152.515 57.7813C153.275 57.787 153.898 56.9156 153.906 55.8351Z" fill="#FF6584"/>
<path d="M167.604 64.8185C167.613 63.738 167.003 62.8575 166.244 62.8518C165.484 62.8461 164.861 63.7174 164.853 64.7979C164.845 65.8785 165.454 66.759 166.214 66.7647C166.973 66.7704 167.596 65.899 167.604 64.8185Z" fill="#3F3D56"/>
</g>
<defs>
<clipPath id="clip0_6339_3436">
<rect width="254" height="287" fill="white"/>
</clipPath>
</defs>
</svg>
