<svg width="248" height="239" viewBox="0 0 248 239" fill="none" xmlns="http://www.w3.org/2000/svg">
<g clip-path="url(#clip0_6339_3542)">
<path d="M223.335 231.543C224.274 231.602 224.793 230.43 224.083 229.747L224.012 229.465C224.022 229.443 224.031 229.42 224.04 229.397C224.99 227.123 228.209 227.139 229.15 229.416C229.986 231.438 231.05 233.463 231.312 235.601C231.43 236.544 231.377 237.506 231.168 238.432C233.127 234.135 234.157 229.444 234.157 224.726C234.157 223.54 234.093 222.355 233.961 221.173C233.852 220.205 233.702 219.244 233.508 218.292C232.46 213.143 230.191 208.239 226.917 204.144C225.343 203.28 224.031 201.929 223.238 200.31C222.953 199.726 222.73 199.098 222.625 198.458C222.804 198.482 223.3 195.743 223.165 195.574C223.414 195.194 223.861 195.005 224.134 194.634C225.489 192.788 227.357 193.11 228.332 195.619C230.415 196.675 230.435 198.426 229.157 200.11C228.344 201.181 228.232 202.631 227.519 203.778C227.592 203.872 227.669 203.964 227.742 204.058C229.088 205.792 230.252 207.656 231.234 209.614C230.956 207.438 231.366 204.816 232.064 203.126C232.859 201.201 234.348 199.579 235.66 197.915C237.235 195.915 240.466 196.788 240.744 199.322C240.746 199.347 240.749 199.372 240.752 199.396C240.557 199.506 240.366 199.624 240.18 199.748C239.116 200.454 239.484 202.11 240.744 202.305L240.772 202.309C240.702 203.014 240.581 203.713 240.405 204.4C242.088 210.936 238.455 213.316 233.268 213.423C233.153 213.482 233.042 213.541 232.927 213.597C233.453 215.083 233.873 216.608 234.184 218.153C234.463 219.518 234.656 220.898 234.765 222.284C234.9 224.033 234.888 225.79 234.742 227.536L234.75 227.474C235.123 225.551 236.163 223.756 237.672 222.511C239.92 220.656 243.096 219.973 245.522 218.483C246.689 217.765 248.185 218.692 247.981 220.052L247.971 220.117C247.61 220.264 247.258 220.435 246.917 220.627C246.723 220.737 246.532 220.855 246.345 220.978C245.282 221.685 245.649 223.341 246.909 223.536L246.938 223.54C246.958 223.543 246.976 223.546 246.997 223.549C246.377 225.027 245.514 226.398 244.433 227.58C243.381 233.286 238.862 233.827 234.028 232.165H234.025C233.497 234.477 232.725 236.736 231.732 238.889H223.541C223.511 238.797 223.485 238.703 223.458 238.611C224.216 238.659 224.979 238.614 225.725 238.476C225.117 237.727 224.509 236.972 223.902 236.223C223.887 236.208 223.875 236.193 223.864 236.179C223.555 235.795 223.244 235.415 222.936 235.032L222.936 235.031C222.916 233.854 223.057 232.681 223.335 231.543Z" fill="#FFF0F0"/>
<path d="M72.6201 238.457C72.6201 238.758 72.8611 239 73.1611 239H247.396C247.696 239 247.936 238.758 247.936 238.457C247.936 238.156 247.696 237.914 247.396 237.914H73.1611C72.8611 237.914 72.6201 238.156 72.6201 238.457Z" fill="#CCCCCC"/>
<path d="M99.0585 238.768H18.86C9.08122 238.768 1.12549 230.778 1.12549 220.957V47.8596C1.12549 38.0385 9.08122 30.0483 18.86 30.0483H99.0585C108.837 30.0483 116.793 38.0385 116.793 47.8596V220.957C116.793 230.778 108.837 238.768 99.0585 238.768Z" fill="#3F3D56"/>
<path d="M116.793 93.7192C116.379 93.7192 116.042 94.0572 116.042 94.4727V118.585C116.042 119 116.379 119.338 116.793 119.338C117.207 119.338 117.543 119 117.543 118.585V94.4727C117.543 94.0572 117.207 93.7192 116.793 93.7192Z" fill="#3F3D56"/>
<path d="M115.105 47.8596V220.954C115.105 229.502 108.48 236.495 100.103 237.037H100.1C99.9757 237.045 99.852 237.053 99.7244 237.056C99.5031 237.068 99.2818 237.071 99.0567 237.071C99.0567 237.071 98.2314 237.011 96.7234 236.898C95.2004 236.785 92.9834 236.616 90.2187 236.393C89.3896 236.329 88.5156 236.258 87.5928 236.182C85.7546 236.032 83.7364 235.866 81.5719 235.677C80.7092 235.606 79.8163 235.527 78.9048 235.448C74.2457 235.044 69.0276 234.574 63.5245 234.039C62.5942 233.952 61.6564 233.861 60.7111 233.767C60.4635 233.741 60.2121 233.718 59.9608 233.692C56.0369 233.304 2.81348 222.973 2.81348 220.954V47.8596C2.81348 38.957 9.9972 31.7422 18.8615 31.7422H28.4423C29.9728 31.7422 31.2032 32.9403 31.3345 34.4736C31.3457 34.5754 31.357 34.6771 31.3758 34.7788C31.6534 36.3197 33.0601 37.3935 34.6206 37.3935H83.2976C84.8581 37.3935 86.2648 36.3197 86.5424 34.7788C86.5611 34.6771 86.5724 34.5754 86.5837 34.4736C86.715 32.9403 87.9454 31.7422 89.4759 31.7422H99.0567C107.921 31.7422 115.105 38.957 115.105 47.8596Z" fill="#FFF0F0"/>
<path d="M0.750255 75.6353C0.336477 75.6353 0 75.9732 0 76.3888V82.4168C0 82.8323 0.336482 83.1703 0.750255 83.1703C1.16403 83.1703 1.50051 82.8323 1.50051 82.4168V76.3888C1.50051 75.9732 1.16403 75.6353 0.750255 75.6353Z" fill="#3F3D56"/>
<path d="M0.750255 93.7192C0.336477 93.7192 0 94.0572 0 94.4727V106.152C0 106.568 0.336482 106.906 0.750255 106.906C1.16403 106.906 1.50051 106.568 1.50051 106.152V94.4727C1.50051 94.0572 1.16403 93.7192 0.750255 93.7192Z" fill="#3F3D56"/>
<path d="M0.750255 110.296C0.336477 110.296 0 110.634 0 111.05V122.729C0 123.145 0.336482 123.483 0.750255 123.483C1.16403 123.483 1.50051 123.145 1.50051 122.729V111.05C1.50051 110.634 1.16403 110.296 0.750255 110.296Z" fill="#3F3D56"/>
<path d="M28.1814 34.3809H13.8334C13.7555 34.3809 13.6924 34.4443 13.6924 34.5225V36.123C13.6924 36.2012 13.7555 36.2646 13.8334 36.2646H28.1814C28.2593 36.2646 28.3224 36.2012 28.3224 36.123V34.5225C28.3224 34.4443 28.2593 34.3809 28.1814 34.3809Z" fill="#E6E6E6"/>
<path d="M91.8467 36.265C92.6754 36.265 93.3472 35.5903 93.3472 34.758C93.3472 33.9257 92.6754 33.251 91.8467 33.251C91.018 33.251 90.3462 33.9257 90.3462 34.758C90.3462 35.5903 91.018 36.265 91.8467 36.265Z" fill="#E6E6E6"/>
<path d="M95.9732 36.265C96.8019 36.265 97.4737 35.5903 97.4737 34.758C97.4737 33.9257 96.8019 33.251 95.9732 33.251C95.1445 33.251 94.4727 33.9257 94.4727 34.758C94.4727 35.5903 95.1445 36.265 95.9732 36.265Z" fill="#E6E6E6"/>
<path d="M100.1 36.265C100.928 36.265 101.6 35.5903 101.6 34.758C101.6 33.9257 100.928 33.251 100.1 33.251C99.2709 33.251 98.5991 33.9257 98.5991 34.758C98.5991 35.5903 99.2709 36.265 100.1 36.265Z" fill="#E6E6E6"/>
<path d="M90.5918 136.285H26.9511C25.9485 136.285 25.1328 135.466 25.1328 134.459C25.1328 133.452 25.9485 132.633 26.9511 132.633H90.5918C91.5944 132.633 92.4101 133.452 92.4101 134.459C92.4101 135.466 91.5944 136.285 90.5918 136.285Z" fill="#E6E6E6"/>
<path d="M58.9997 207.049C73.5609 207.049 85.3651 195.194 85.3651 180.57C85.3651 165.946 73.5609 154.09 58.9997 154.09C44.4385 154.09 32.6343 165.946 32.6343 180.57C32.6343 195.194 44.4385 207.049 58.9997 207.049Z" fill="#FF6B6B"/>
<path d="M63.1898 171.924C60.9647 172.016 58.4492 172.169 56.8046 173.884C55.3758 175.374 55.0627 177.584 56.5116 179.175C57.9643 180.769 60.223 180.985 61.8975 182.229C63.8638 183.69 63.5758 186.58 61.673 187.964C59.4292 189.597 56.5322 188.835 54.4809 187.282C53.9552 186.884 53.4449 187.776 53.9646 188.169C55.8025 189.561 58.2007 190.335 60.473 189.67C62.5238 189.069 64.1135 187.389 64.2752 185.205C64.3524 184.162 64.0572 183.104 63.4117 182.281C62.7303 181.412 61.7489 180.877 60.7567 180.442C59.0487 179.693 56.1078 178.724 56.6044 176.286C57.2063 173.33 60.7883 173.05 63.1898 172.951C63.8456 172.924 63.849 171.897 63.1898 171.924Z" fill="white"/>
<path d="M59.0619 170.525L58.9639 193.076C58.961 193.737 59.9838 193.737 59.9867 193.076L60.0847 170.525C60.0876 169.864 59.0648 169.863 59.0619 170.525Z" fill="white"/>
<path d="M198.689 0H68.6983C63.9298 0 60.0522 3.89429 60.0522 8.68341V98.1474C60.0522 102.937 63.9298 106.831 68.6983 106.831H198.689C203.457 106.831 207.335 102.937 207.335 98.1474V8.68341C207.335 3.89429 203.457 0 198.689 0Z" fill="#FFF0F0"/>
<path d="M133.096 53.1943C141.13 53.1943 147.642 46.6534 147.642 38.5849C147.642 30.5164 141.13 23.9756 133.096 23.9756C125.062 23.9756 118.549 30.5164 118.549 38.5849C118.549 46.6534 125.062 53.1943 133.096 53.1943Z" fill="#FF6B6B"/>
<path d="M135.855 32.0658C134.054 32.1403 132.027 32.255 130.665 33.6008C129.537 34.7155 129.142 36.451 130.179 37.7635C131.271 39.1455 133.086 39.4077 134.511 40.2908C135.397 40.8397 135.984 41.6712 136.003 42.7399C136.02 43.7403 135.561 44.675 134.792 45.3021C132.907 46.8405 130.335 46.2037 128.551 44.8582C128.2 44.5935 127.86 45.1878 128.207 45.4495C129.685 46.5638 131.587 47.211 133.425 46.7316C135.117 46.2903 136.48 44.9533 136.664 43.1668C136.857 41.2839 135.626 40.0019 134.03 39.2663C132.571 38.594 130.012 37.8777 130.253 35.7891C130.56 33.1336 133.797 32.8358 135.855 32.7506C136.292 32.7325 136.294 32.0476 135.855 32.0658Z" fill="white"/>
<path d="M132.726 30.8239L132.644 49.6144C132.642 50.0551 133.324 50.0556 133.326 49.6144L133.408 30.8239C133.41 30.3832 132.728 30.3826 132.726 30.8239Z" fill="white"/>
<path d="M198.689 0H68.6983C63.9298 0 60.0522 3.89429 60.0522 8.68341V98.1474C60.0522 102.937 63.9298 106.831 68.6983 106.831H198.689C203.457 106.831 207.335 102.937 207.335 98.1474V8.68341C207.335 3.89429 203.457 0 198.689 0ZM206.426 98.1474C206.426 102.434 202.957 105.918 198.689 105.918H68.6983C64.4298 105.918 60.9614 102.434 60.9614 98.1474V8.68341C60.9614 4.3965 64.4298 0.913084 68.6983 0.913084H198.689C202.957 0.913084 206.426 4.3965 206.426 8.68341V98.1474Z" fill="#3F3D56"/>
<path d="M118.706 8.83398H105.951C105.31 8.83398 104.787 9.35902 104.787 10.0027C104.787 10.651 105.31 11.176 105.951 11.176H118.706C119.347 11.176 119.87 10.651 119.87 10.0027C119.87 9.35902 119.347 8.83398 118.706 8.83398Z" fill="#E6E6E6"/>
<path d="M140.072 8.83398H127.316C126.675 8.83398 126.152 9.35902 126.152 10.0027C126.152 10.651 126.675 11.176 127.316 11.176H140.072C140.712 11.176 141.235 10.651 141.235 10.0027C141.235 9.35902 140.712 8.83398 140.072 8.83398Z" fill="#E6E6E6"/>
<path d="M161.436 8.83398H148.681C148.04 8.83398 147.517 9.35902 147.517 10.0027C147.517 10.651 148.04 11.176 148.681 11.176H161.436C162.077 11.176 162.6 10.651 162.6 10.0027C162.6 9.35902 162.077 8.83398 161.436 8.83398Z" fill="#E6E6E6"/>
<path d="M182.474 61.4121H84.9128C80.8535 61.4121 77.5532 64.7266 77.5532 68.8035V75.4782C77.5532 79.5551 80.8535 82.8696 84.9128 82.8696H182.474C186.533 82.8696 189.834 79.5551 189.834 75.4782V68.8035C189.834 64.7266 186.533 61.4121 182.474 61.4121Z" fill="#FF6B6B"/>
<path d="M33.2655 96.555L29.5244 94.7751C31.0589 96.9258 32.3811 100.285 33.0889 102.957C34.2874 100.468 36.2195 97.4214 38.1319 95.6017L34.1779 96.6233C36.6143 84.6309 45.7783 76.0215 56.2723 76.0215V75.1084C45.311 75.1084 35.7532 84.0783 33.2655 96.555Z" fill="#3F3D56"/>
<path d="M50.4846 114.828H26.8466C25.844 114.828 25.0283 114.008 25.0283 113.001C25.0283 111.995 25.844 111.175 26.8466 111.175H50.4846C51.4872 111.175 52.3029 111.995 52.3029 113.001C52.3029 114.008 51.4872 114.828 50.4846 114.828Z" fill="#E6E6E6"/>
<path d="M207.731 108.88L207.493 127.525L202.874 144.145L199.181 142.762L200.821 127.527L200.605 106.911L207.731 108.88Z" fill="#FFB6B6"/>
<path d="M202.858 146.825C203.291 144.435 202.497 142.288 201.084 142.03C199.671 141.772 198.175 143.5 197.742 145.889C197.308 148.279 198.102 150.426 199.515 150.685C200.928 150.943 202.425 149.215 202.858 146.825Z" fill="#FFB6B6"/>
<path d="M202.126 86.6797C202.126 86.6797 210.039 86.7891 210.032 91.0107C210.028 93.3942 209.519 115.035 208.1 128.182C207.007 138.32 204.918 140.965 204.918 140.965L199.918 129.552L202.126 86.6797Z" fill="#E6E6E6"/>
<path d="M201.923 124.772H175.199C177.439 119.752 178.816 114.972 176.663 111.169L201.923 109.698C200.66 114.832 200.506 119.87 201.923 124.772Z" fill="#FFB6B6"/>
<path d="M198.628 80.2856L188.012 79.5503L183.619 85.0652L181.392 85.4718C178.054 86.0814 175.676 89.0734 175.825 92.4778L176.692 112.252L202.066 114.11L208.146 88.3602L200.824 85.4328L198.628 80.2856Z" fill="#E6E6E6"/>
<path d="M133.886 86.2505C134.64 86.931 135.177 87.726 135.461 88.497L143.044 94.5246L140.083 98.0645L132.71 91.569C131.916 91.3667 131.072 90.9134 130.319 90.2329C128.599 88.6783 128.002 86.5265 128.987 85.4268C129.972 84.3271 132.166 84.6959 133.886 86.2505Z" fill="#FFB6B6"/>
<path d="M187.498 91.325L158.443 111.029L137.616 96.4728L140.743 90.7843L157.135 100.352L172.251 88.6943C177.634 83.6161 184.381 84.6005 187.498 91.325Z" fill="#E6E6E6"/>
<path d="M192.69 77.8987C197.04 77.8987 200.566 74.3572 200.566 69.9886C200.566 65.6201 197.04 62.0786 192.69 62.0786C188.341 62.0786 184.814 65.6201 184.814 69.9886C184.814 74.3572 188.341 77.8987 192.69 77.8987Z" fill="#FFB6B6"/>
<path d="M203.396 68.0454V69.5795L194.513 67.0685L187.854 68.47C187.776 67.452 187.476 66.4521 186.976 65.5664C187.324 66.987 187.363 68.086 186.994 68.6527L186.099 68.8398C185.953 68.4426 185.672 68.0957 185.303 67.8857C185.267 67.8628 185.222 67.8446 185.181 67.8583C185.117 67.8811 185.112 67.9633 185.112 68.0272C185.122 68.365 185.131 68.7029 185.144 69.0407L182.571 69.5794V68.0454C180.103 62.4675 186.609 57.6407 192.986 57.5906C195.863 57.568 198.463 58.7594 200.35 60.6495C202.232 62.5441 203.396 65.1556 203.396 68.0454Z" fill="#2F2E41"/>
<path d="M208.392 86.0325L207.722 85.9767C207.769 85.7564 207.817 85.5389 207.861 85.3186C208.233 83.4698 207.414 81.1163 207.354 79.34C207.038 81.2167 207.578 83.5256 207.02 85.3075C206.957 85.5055 204.53 86.7832 204.464 86.9783C201.777 85.9917 198.98 82.8393 195.812 84.6806C193.939 85.7695 191.801 85.2922 189.674 84.7936C189.148 84.6702 189.075 82.059 188.554 81.9564C187.62 81.7726 186.25 84.1463 185.372 84.2391L189.008 70.0863C189.008 62.3871 188.298 54.3094 198.009 57.0318C200.451 57.7165 202.868 58.2532 204.671 60.2776C206.474 62.3049 207.757 65.138 208.212 68.3644C208.486 70.3108 210.197 76.9196 208.392 86.0325Z" fill="#2F2E41"/>
<path d="M202.122 228.353L197.787 228.456L195.37 208.896L201.768 208.744L202.122 228.353Z" fill="#FFB7B7"/>
<path d="M187.249 237.437C187.249 238.172 187.768 238.768 188.409 238.768H197.014C197.014 238.768 197.861 235.35 201.313 233.879L201.552 238.768H205.991L205.453 230.906C205.453 230.906 206.64 226.699 204.174 224.549C201.708 222.399 203.706 222.698 203.706 222.698L202.735 217.832L196.028 218.624L195.978 226.263L192.723 233.846L187.949 236.214C187.524 236.425 187.249 236.906 187.249 237.437Z" fill="#2F2E41"/>
<path d="M188.933 225.165L184.765 226.37L177.486 208.066L183.636 206.288L188.933 225.165Z" fill="#FFB7B7"/>
<path d="M176.841 237.742C177.027 238.453 177.681 238.898 178.301 238.734L186.624 236.541C186.624 236.541 186.579 233.019 189.547 230.716L191.013 235.385L195.306 234.254L192.8 226.785C192.8 226.785 192.885 222.414 189.957 220.963C187.028 219.511 189.036 219.292 189.036 219.292L186.868 214.832L180.58 217.308L182.462 224.709L181.229 232.873L177.21 236.381C176.852 236.693 176.707 237.228 176.841 237.742Z" fill="#2F2E41"/>
<path d="M199.463 123.617L202.191 124.53C206.455 132.44 208.263 142.944 208.024 155.61L203.179 212.501H195.252L189.452 149.123L179.224 172.911L186.707 212.501L179.224 213.267L164.151 172.1L174.648 124.253L199.463 123.617Z" fill="#2F2E41"/>
</g>
<defs>
<clipPath id="clip0_6339_3542">
<rect width="248" height="239" fill="white"/>
</clipPath>
</defs>
</svg>
