<svg width="24" height="18" viewBox="0 0 24 18" fill="none" xmlns="http://www.w3.org/2000/svg">
<g clip-path="url(#clip0_6497_248)">
<path fill-rule="evenodd" clip-rule="evenodd" d="M0 0H34.2V1.38516H0V0ZM0 2.77031H34.2V4.15547H0V2.77031ZM0 5.53711H34.2V6.92578H0V5.53711ZM0 8.30742H34.2V9.69258H0V8.30742ZM0 11.0777H34.2V12.4629H0V11.0777ZM0 13.8445H34.2V15.2297H0V13.8445ZM0 16.6148H34.2V18H0V16.6148Z" fill="#BD3D44"/>
<path fill-rule="evenodd" clip-rule="evenodd" d="M0 1.38525H34.2V2.77041H0V1.38525ZM0 4.15557H34.2V5.53721H0V4.15557ZM0 6.92236H34.2V8.30752H0V6.92236ZM0 9.69268H34.2V11.0778H0V9.69268ZM0 12.463H34.2V13.8481H0V12.463ZM0 15.2298H34.2V16.6149H0V15.2298Z" fill="white"/>
<path fill-rule="evenodd" clip-rule="evenodd" d="M0 0H13.6793V9.69258H0V0Z" fill="#192F5D"/>
<path fill-rule="evenodd" clip-rule="evenodd" d="M1.13916 0.415039L1.26572 0.798242H1.6665L1.34307 1.03379L1.46611 1.42051L1.13916 1.18144L0.815723 1.41699L0.93877 1.03379L0.611816 0.798242H1.01963L1.13916 0.415039ZM3.4208 0.415039L3.54385 0.798242H3.94814L3.62119 1.03379L3.74424 1.42051L3.4208 1.18144L3.09385 1.41699L3.21689 1.03379L2.89346 0.798242H3.29424L3.4208 0.415039ZM5.69893 0.415039L5.82549 0.798242H6.22275L5.89932 1.03379L6.02236 1.42051L5.69541 1.18144L5.37197 1.41699L5.49502 1.03379L5.16807 0.798242H5.57236L5.69893 0.415039ZM7.98057 0.415039L8.10361 0.798242H8.50791L8.18096 1.03379L8.30752 1.42051L7.98057 1.18144L7.65361 1.41699L7.78018 1.03379L7.45322 0.798242H7.854L7.98057 0.415039ZM10.2587 0.415039L10.3853 0.798242H10.786L10.4626 1.03379L10.5856 1.42051L10.2587 1.18144L9.93525 1.41699L10.0583 1.03379L9.73486 0.798242H10.1356L10.2587 0.415039ZM12.5403 0.415039L12.6634 0.798242H13.0677L12.7407 1.03379L12.8673 1.42051L12.5403 1.18144L12.2134 1.41699L12.3399 1.03379L12.013 0.798242H12.4173L12.5403 0.415039ZM2.28174 1.38535L2.40479 1.76855H2.80908L2.48213 2.0041L2.60166 2.3873L2.28525 2.15176L1.9583 2.3873L2.07432 2.0041L1.75791 1.76855H2.15869L2.28174 1.38535ZM4.55986 1.38535L4.68643 1.76855H5.08721L4.76025 2.0041L4.88682 2.3873L4.55986 2.15176L4.23291 2.3873L4.35947 2.0041L4.03252 1.76855H4.43682L4.55986 1.38535ZM6.8415 1.38535L6.96455 1.76855H7.36885L7.04189 2.0041L7.16494 2.3873L6.8415 2.15176L6.51455 2.3873L6.6376 2.0041L6.31416 1.76855H6.71494L6.8415 1.38535ZM9.11963 1.38535L9.24619 1.76855H9.64697L9.32002 2.0041L9.44658 2.3873L9.11963 2.15176L8.79619 2.3873L8.91924 2.0041L8.59229 1.76855H9.0001L9.11963 1.38535ZM11.4013 1.38535L11.5243 1.76855H11.9286L11.6017 2.0041L11.7247 2.3873L11.4013 2.15176L11.0743 2.3873L11.1974 2.0041L10.8739 1.76855H11.2747L11.4013 1.38535ZM1.13916 2.35215L1.26572 2.74238H1.6665L1.34307 2.97793L1.46611 3.36113L1.13916 3.12207L0.815723 3.36113L0.93877 2.97441L0.611816 2.73887H1.01963L1.13916 2.35215ZM3.4208 2.35215L3.54385 2.73887H3.94814L3.62119 2.97441L3.74424 3.35762L3.4208 3.11855L3.09385 3.35762L3.21689 2.9709L2.89346 2.73535H3.29424L3.4208 2.35215ZM5.69893 2.35215L5.82549 2.73887H6.22275L5.89932 2.97441L6.02236 3.35762L5.69541 3.11855L5.37197 3.35762L5.49502 2.9709L5.16807 2.73535H5.57236L5.69893 2.35215ZM7.98057 2.35215L8.10361 2.73887H8.50791L8.18096 2.97441L8.30752 3.35762L7.98057 3.11855L7.65361 3.35762L7.78018 2.9709L7.45322 2.73535H7.854L7.98057 2.35215ZM10.2587 2.35215L10.3853 2.73887H10.786L10.4626 2.97441L10.5856 3.35762L10.2587 3.11855L9.93525 3.35762L10.0583 2.9709L9.73486 2.73535H10.1356L10.2587 2.35215ZM12.5403 2.35215L12.6634 2.73887H13.0677L12.7407 2.97441L12.8673 3.35762L12.5403 3.11855L12.2134 3.35762L12.3399 2.9709L12.013 2.73535H12.4173L12.5403 2.35215ZM2.28174 3.32246L2.40479 3.70566H2.80908L2.48213 3.94121L2.60518 4.32793L2.28174 4.08887L1.95479 4.32441L2.07783 3.94121L1.75439 3.70566H2.15518L2.28174 3.32246ZM4.55986 3.32246L4.68643 3.70566H5.08721L4.76025 3.94121L4.88682 4.32793L4.55986 4.08887L4.23291 4.32441L4.35947 3.94121L4.03252 3.70566H4.43682L4.55986 3.32246ZM6.8415 3.32246L6.96455 3.70566H7.36885L7.04189 3.94121L7.16494 4.32793L6.8415 4.08887L6.51455 4.32441L6.6376 3.94121L6.31416 3.70566H6.71494L6.8415 3.32246ZM9.11963 3.32246L9.24619 3.70566H9.64697L9.32354 3.94121L9.44658 4.32793L9.11963 4.08887L8.79619 4.32441L8.91924 3.94121L8.59229 3.70566H9.0001L9.11963 3.32246ZM11.4013 3.32246L11.5243 3.70566H11.9286L11.6017 3.94121L11.7247 4.32793L11.4013 4.08887L11.0743 4.32441L11.1974 3.94121L10.8739 3.70566H11.2747L11.4013 3.32246ZM1.13916 4.29277L1.26572 4.67597H1.6665L1.34307 4.91152L1.46611 5.29824L1.13916 5.05918L0.815723 5.29472L0.93877 4.91152L0.611816 4.67597H1.01963L1.13916 4.29277ZM3.4208 4.29277L3.54385 4.67597H3.94814L3.62119 4.91152L3.74424 5.29472L3.4208 5.05918L3.09385 5.29472L3.21689 4.91152L2.89346 4.67597H3.29424L3.4208 4.29277ZM5.69893 4.29277L5.82549 4.67597H6.22275L5.89932 4.91152L6.02236 5.29824L5.69541 5.05918L5.37197 5.29472L5.49502 4.91152L5.16807 4.67597H5.57236L5.69893 4.29277ZM7.98057 4.29277L8.10361 4.67597H8.50791L8.18096 4.91152L8.30752 5.29824L7.98057 5.05918L7.65361 5.29472L7.78018 4.91152L7.45322 4.67597H7.854L7.98057 4.29277ZM10.2587 4.29277L10.3853 4.67597H10.786L10.4626 4.91152L10.5856 5.29824L10.2587 5.05918L9.93525 5.29472L10.0583 4.91152L9.73486 4.67597H10.1356L10.2587 4.29277ZM12.5403 4.29277L12.6634 4.67597H13.0677L12.7407 4.91152L12.8673 5.29824L12.5403 5.05918L12.2134 5.29472L12.3399 4.91152L12.013 4.67597H12.4173L12.5403 4.29277ZM2.28174 5.26308L2.40479 5.64629H2.80908L2.48213 5.88183L2.60518 6.26504L2.28174 6.02597L1.95479 6.26504L2.07783 5.87832L1.75439 5.64277H2.15518L2.28174 5.26308ZM4.55986 5.26308L4.68643 5.64629H5.08721L4.76025 5.88183L4.88682 6.26504L4.55986 6.02597L4.23291 6.26504L4.35947 5.87832L4.03252 5.64277H4.43682L4.55986 5.26308ZM6.8415 5.26308L6.96455 5.64629H7.36885L7.04189 5.88183L7.16494 6.26504L6.8415 6.02597L6.51455 6.26504L6.6376 5.87832L6.31416 5.64277H6.71494L6.8415 5.26308ZM9.11963 5.26308L9.24619 5.64629H9.64697L9.32354 5.88183L9.44658 6.26504L9.11963 6.02597L8.79619 6.26504L8.91924 5.87832L8.59229 5.64277H9.0001L9.11963 5.26308ZM11.4013 5.26308L11.5243 5.64629H11.9286L11.6017 5.88183L11.7247 6.26504L11.4013 6.02597L11.0743 6.26504L11.1974 5.87832L10.8739 5.64277H11.2747L11.4013 5.26308ZM1.13916 6.22988L1.26572 6.6166H1.6665L1.34307 6.85215L1.46611 7.23183L1.13916 6.99629L0.815723 7.23183L0.93877 6.84863L0.611816 6.61308H1.01963L1.13916 6.22988ZM3.4208 6.22988L3.54385 6.6166H3.94814L3.62119 6.85215L3.74775 7.23183L3.4208 6.99629L3.09385 7.23183L3.22041 6.84863L2.89346 6.61308H3.29424L3.4208 6.22988ZM5.69893 6.22988L5.82549 6.6166H6.22275L5.89932 6.85215L6.02236 7.23183L5.69541 6.99629L5.37197 7.23183L5.49502 6.84863L5.16807 6.61308H5.57236L5.69893 6.22988ZM7.98057 6.22988L8.10361 6.6166H8.50791L8.18096 6.85215L8.30752 7.23183L7.98057 6.99629L7.65361 7.23183L7.78018 6.84863L7.45322 6.61308H7.854L7.98057 6.22988ZM10.2587 6.22988L10.3853 6.6166H10.786L10.4626 6.85215L10.5856 7.23183L10.2587 6.99629L9.93525 7.23183L10.0583 6.84863L9.73486 6.61308H10.1356L10.2587 6.22988ZM12.5403 6.22988L12.6634 6.6166H13.0677L12.7407 6.85215L12.8673 7.23183L12.5403 6.99629L12.2134 7.23183L12.3399 6.84863L12.013 6.61308H12.4173L12.5403 6.22988ZM2.28174 7.20019L2.40479 7.5834H2.80908L2.48213 7.81894L2.60518 8.20566L2.28174 7.9666L1.95479 8.20215L2.07783 7.81894L1.75439 7.5834H2.15518L2.28174 7.20019ZM4.55986 7.20019L4.68643 7.5834H5.08721L4.76025 7.81894L4.88682 8.20566L4.55986 7.9666L4.23291 8.20215L4.35947 7.81894L4.03252 7.5834H4.43682L4.55986 7.20019ZM6.8415 7.20019L6.96455 7.5834H7.36885L7.04189 7.81894L7.16494 8.20566L6.8415 7.9666L6.51455 8.20215L6.6376 7.81894L6.31416 7.5834H6.71494L6.8415 7.20019ZM9.11963 7.20019L9.24619 7.5834H9.64697L9.32354 7.81894L9.44658 8.20566L9.11963 7.9666L8.79619 8.20215L8.91924 7.81894L8.59229 7.5834H9.0001L9.11963 7.20019ZM11.4013 7.20019L11.5243 7.5834H11.9286L11.6017 7.81894L11.7247 8.20566L11.4013 7.9666L11.0743 8.20215L11.1974 7.81894L10.8739 7.5834H11.2747L11.4013 7.20019ZM1.13916 8.1705L1.26572 8.55371H1.6665L1.34307 8.78925L1.46611 9.17246L1.13916 8.93691L0.815723 9.17246L0.93877 8.78574L0.611816 8.55019H1.01963L1.13916 8.1705ZM3.4208 8.1705L3.54385 8.55371H3.94814L3.62119 8.78925L3.74775 9.17246L3.4208 8.93691L3.09385 9.17246L3.22041 8.78574L2.89346 8.55019H3.29424L3.4208 8.1705ZM5.69893 8.1705L5.82549 8.55371H6.22275L5.90635 8.78925L6.02939 9.17246L5.70244 8.93691L5.379 9.17246L5.50205 8.78574L5.1751 8.55019H5.57939L5.69893 8.1705ZM7.98057 8.1705L8.10361 8.55371H8.50791L8.18096 8.78925L8.30752 9.17246L7.98057 8.93691L7.65361 9.17246L7.78018 8.78574L7.45322 8.55019H7.854L7.98057 8.1705ZM10.2587 8.1705L10.3853 8.55371H10.786L10.4626 8.78925L10.5856 9.17246L10.2587 8.93691L9.93525 9.17246L10.0583 8.78574L9.73486 8.55019H10.1356L10.2587 8.1705ZM12.5403 8.1705L12.6634 8.55371H13.0677L12.7407 8.78925L12.8673 9.17246L12.5403 8.93691L12.2134 9.17246L12.3399 8.78574L12.013 8.55019H12.4173L12.5403 8.1705Z" fill="white"/>
</g>
<defs>
<clipPath id="clip0_6497_248">
<rect width="24" height="18" fill="white"/>
</clipPath>
</defs>
</svg>
